<svg xmlns="http://www.w3.org/2000/svg" xmlns:xlink="http://www.w3.org/1999/xlink" xmlns:inkscape="http://www.inkscape.org/namespaces/inkscape" version="1.1" width="287" height="51" viewBox="0 0 287 51">
<defs>
<path id="font_1_92" d="M.4149933 .57025149C.4149933 .62815859 .375 .7050781 .22599793 .7050781 .117996219 .7050781 .055999757 .637146 .055999757 .5722656 .055999757 .53822329 .07899475 .52423098 .101989749 .52423098 .12998963 .52423098 .147995 .54422 .147995 .57022097 .147995 .6152344 .10598755 .6152344 .09199524 .6152344 .12298584 .6681061 .18099976 .68307498 .22299195 .68307498 .33198548 .68307498 .33198548 .6152344 .33198548 .5762329 .33198548 .5172577 .31599427 .49925233 .2979889 .4812622 .23199463 .40907289 .20999146 .31684876 .20999146 .25569154V.21057129C.20999146 .1925354 .20999146 .18652344 .22200012 .18652344 .23498535 .18652344 .23498535 .19554138 .23498535 .21357727V.24867249C.23498535 .37498475 .33198548 .446167 .36698915 .472229 .3939972 .49198915 .4149933 .5279999 .4149933 .56999209V.57025149M.2749939 .052993776C.2749939 .08198547 .25099183 .10598755 .22200012 .10598755 .19299317 .10598755 .16899109 .08198547 .16899109 .052993776 .16899109 .023986817 .19299317 0 .22200012 0 .25099183 0 .2749939 .023986817 .2749939 .052993776Z"/>
<path id="font_1_100" d="M.4850006 .6435547H.24198914C.11999512 .6435547 .117996219 .6566467 .11399841 .67578127H.08898926L.055999757 .46954347H.08099365C.083999637 .48554994 .09298706 .54855349 .10598755 .5605469 .11299133 .5665436 .19099427 .5665436 .20399475 .5665436H.41099549L.29899598 .40853883C.20899964 .2735443 .17599488 .13453675 .17599488 .03253174 .17599488 .022537232 .17599488-.022460938 .22200012-.022460938 .2679901-.022460938 .2679901 .022537232 .2679901 .03253174V.08354187C.2679901 .13853455 .2709961 .19354248 .2789917 .24754334 .2829895 .27053834 .29699708 .35653688 .34098817 .41854859L.47599793 .608551C.4850006 .62054446 .4850006 .62254336 .4850006 .6435547Z"/>
</defs>
<path transform="matrix(1.00002,0,0,-1.00003,1.4607277,34.493097)" d="M0 0V17.71672H212.60106V0ZM212.60106 17.71672" fill="#64b5f6"/>
<path transform="matrix(1.00002,0,0,-1.00003,1.4607277,34.493097)" stroke-width=".3985" stroke-linecap="butt" stroke-miterlimit="10" stroke-linejoin="miter" fill="none" stroke="#000000" d="M70.867 0V17.71672"/>
<path transform="matrix(1.00002,0,0,-1.00003,1.4607277,34.493097)" stroke-width=".3985" stroke-linecap="butt" stroke-miterlimit="10" stroke-linejoin="miter" fill="none" stroke="#000000" d="M141.73404 0V17.71672"/>
<path transform="matrix(1.00002,0,0,-1.00003,1.4607277,34.493097)" stroke-width=".3985" stroke-linecap="butt" stroke-miterlimit="10" stroke-linejoin="miter" fill="none" stroke="#000000" d="M212.60106 0V17.71672"/>
<path transform="matrix(1.00002,0,0,-1.00003,1.4607277,34.493097)" stroke-width=".3985" stroke-linecap="butt" stroke-miterlimit="10" stroke-linejoin="miter" fill="none" stroke="#000000" d="M0 0V17.71672H283.4681V0ZM283.4681 17.71672"/>
<path transform="matrix(1.00002,0,0,-1.00003,1.4607277,34.493097)" stroke-width=".3985" stroke-linecap="butt" stroke-miterlimit="10" stroke-linejoin="miter" fill="none" stroke="#000000" d="M283.4681 0C282.72093-1.49442 280.9774-2.49069 278.48674-2.49069H146.71543C144.22473-2.49069 142.48122-3.48695 141.73404-4.98138 140.98686-3.48695 139.24335-2.49069 136.75266-2.49069H4.98138C2.49069-2.49069 .74718-1.49442 0 0"/>
<use data-text="?" xlink:href="#font_1_92" transform="matrix(9.962799,0,0,-9.962899,140.84651,50.018564)"/>
<path transform="matrix(1.00002,0,0,-1.00003,1.4607277,34.493097)" stroke-width=".3985" stroke-linecap="butt" stroke-miterlimit="10" stroke-linejoin="miter" fill="none" stroke="#000000" d="M0 17.71672C.74718 19.21115 2.49069 20.20741 4.98138 20.20741H101.31914C103.80983 20.20741 105.55334 21.20367 106.30052 22.6981 107.0477 21.20367 108.79121 20.20741 111.2819 20.20741H207.61968C210.11037 20.20741 211.85388 19.21115 212.60106 17.71672"/>
<use data-text="7" xlink:href="#font_1_100" transform="matrix(9.962799,0,0,-9.962899,105.27281,8.055302)"/>
</svg>
