<svg xmlns="http://www.w3.org/2000/svg" xmlns:xlink="http://www.w3.org/1999/xlink" xmlns:inkscape="http://www.inkscape.org/namespaces/inkscape" version="1.1" width="216" height="148" viewBox="0 0 216 148">
<defs>
<path id="font_1_106" d="M.45700074 .17037964C.45700074 .252594 .3939972 .33088685 .2899933 .35191346 .37199403 .37893678 .42999269 .4490509 .42999269 .52809146 .42999269 .6100464 .34199525 .6660156 .24598694 .6660156 .14498902 .6660156 .068984989 .60606387 .068984989 .53009036 .068984989 .49710084 .09098816 .47808839 .11999512 .47808839 .15098572 .47808839 .17098999 .50009158 .17098999 .5290985 .17098999 .57910159 .12399292 .57910159 .10899353 .57910159 .13999939 .62802127 .20599365 .64100649 .24198914 .64100649 .2829895 .64100649 .33799745 .6190338 .33799745 .5290985 .33799745 .51708987 .33599855 .45906068 .30999757 .4149933 .27999879 .36691285 .24598694 .36390687 .22099304 .36291505 .21299744 .36190797 .18899536 .35990907 .18199158 .35990907 .17399597 .35890199 .16699219 .35791017 .16699219 .3479004 .16699219 .33691407 .17399597 .33691407 .19099427 .33691407H.23498535C.31698609 .33691407 .35398866 .2686615 .35398866 .17037964 .35398866 .034469606 .2849884 .0055389406 .24099732 .0055389406 .19799805 .0055389406 .12298584 .022491456 .08799744 .08137512 .12298584 .07637024 .1539917 .09837341 .1539917 .1363678 .1539917 .17237854 .1269989 .19238281 .09799194 .19238281 .07398987 .19238281 .041992189 .17837525 .041992189 .1343689 .041992189 .043441774 .1349945-.022460938 .24398804-.022460938 .3659973-.022460938 .45700074 .06838989 .45700074 .17037964Z"/>
<path id="font_1_121" d="M.45999146 .31976319C.45999146 .39982606 .45498658 .47988893 .41999818 .5539398 .37399293 .65000918 .2919922 .6660156 .25 .6660156 .18998719 .6660156 .116989139 .64001467 .07598877 .54693606 .04399109 .47789 .038986207 .39982606 .038986207 .31976319 .038986207 .24472046 .042999269 .15464783 .083999637 .07859802 .1269989-.0024719239 .19999695-.022460938 .24899292-.022460938 .30299378-.022460938 .3789978-.0014648438 .4229889 .09359741 .45498658 .16265869 .45999146 .2407074 .45999146 .31976319M.3769989 .3317871C.3769989 .25672914 .3769989 .18867493 .3659973 .12461853 .35099793 .029556275 .2939911-.00047302247 .24899292-.00047302247 .20999146-.00047302247 .15098572 .024551392 .1329956 .12062073 .12199402 .18066406 .12199402 .2727356 .12199402 .3317871 .12199402 .39582826 .12199402 .46188355 .12998963 .5159149 .14898682 .63500979 .22399903 .64401248 .24899292 .64401248 .28199769 .64401248 .34799195 .6259918 .36698915 .52693179 .3769989 .47088624 .3769989 .39482118 .3769989 .3317871Z"/>
<path id="font_1_92" d="M.4149933 .57025149C.4149933 .62815859 .375 .7050781 .22599793 .7050781 .117996219 .7050781 .055999757 .637146 .055999757 .5722656 .055999757 .53822329 .07899475 .52423098 .101989749 .52423098 .12998963 .52423098 .147995 .54422 .147995 .57022097 .147995 .6152344 .10598755 .6152344 .09199524 .6152344 .12298584 .6681061 .18099976 .68307498 .22299195 .68307498 .33198548 .68307498 .33198548 .6152344 .33198548 .5762329 .33198548 .5172577 .31599427 .49925233 .2979889 .4812622 .23199463 .40907289 .20999146 .31684876 .20999146 .25569154V.21057129C.20999146 .1925354 .20999146 .18652344 .22200012 .18652344 .23498535 .18652344 .23498535 .19554138 .23498535 .21357727V.24867249C.23498535 .37498475 .33198548 .446167 .36698915 .472229 .3939972 .49198915 .4149933 .5279999 .4149933 .56999209V.57025149M.2749939 .052993776C.2749939 .08198547 .25099183 .10598755 .22200012 .10598755 .19299317 .10598755 .16899109 .08198547 .16899109 .052993776 .16899109 .023986817 .19299317 0 .22200012 0 .25099183 0 .2749939 .023986817 .2749939 .052993776Z"/>
</defs>
<path transform="matrix(1,0,0,-1.00003,1.4609985,233.53308)" d="M0 170.08086V212.60106H85.04042V170.08086ZM85.04042 212.60106" fill="#e57373"/>
<path transform="matrix(1,0,0,-1.00003,1.4609985,233.53308)" d="M85.04042 170.08086V212.60106H212.60106V170.08086ZM212.60106 212.60106" fill="#64b5f6"/>
<path transform="matrix(1,0,0,-1.00003,1.4609985,233.53308)" stroke-width=".3985" stroke-linecap="butt" stroke-miterlimit="10" stroke-linejoin="miter" fill="none" stroke="#000000" d="M0 170.08086H212.60106M0 212.58614H212.60106M0 170.08086V212.60106M42.5202 170.08086V212.60106M85.04042 170.08086V212.60106M127.56062 170.08086V212.60106M170.08086 170.08086V212.60106M212.58614 170.08086V212.60106M212.60106 212.60106"/>
<path transform="matrix(1,0,0,-1.00003,1.4609985,233.53308)" stroke-width=".3985" stroke-linecap="butt" stroke-miterlimit="10" stroke-linejoin="miter" fill="none" stroke="#000000" d="M0 216.85335C.74718 218.34778 2.49069 219.34404 4.98138 219.34404H101.31914C103.80983 219.34404 105.55334 220.3403 106.30052 221.83473 107.0477 220.3403 108.79121 219.34404 111.2819 219.34404H207.61968C210.11037 219.34404 211.85388 218.34778 212.60106 216.85335"/>
<use data-text="3" xlink:href="#font_1_106" transform="matrix(9.9626,0,0,-9.962899,100.289,7.952301)"/>
<use data-text="0" xlink:href="#font_1_121" transform="matrix(9.9626,0,0,-9.962899,105.2703,7.952301)"/>
<use data-text="0" xlink:href="#font_1_121" transform="matrix(9.9626,0,0,-9.962899,110.2516,7.952301)"/>
<path transform="matrix(1,0,0,-1.00003,1.4609985,233.53308)" stroke-width=".3985" stroke-linecap="butt" stroke-miterlimit="10" stroke-linejoin="miter" fill="none" stroke="#000000" d="M42.5202 161.5769V136.52281"/>
<path transform="matrix(0,1.00003,1,0,43.981199,97.006168)" stroke-width=".31879" stroke-linecap="round" stroke-linejoin="round" fill="none" stroke="#000000" d="M-1.19551 1.59401C-1.09587 .99626 0 .09961 .29886 0 0-.09961-1.09587-.99626-1.19551-1.59401"/>
<path transform="matrix(1,0,0,-1.00003,1.4609985,233.53308)" d="M0 106.3005V127.56062H63.7803V106.3005ZM63.7803 127.56062" fill="#e57373"/>
<path transform="matrix(1,0,0,-1.00003,1.4609985,233.53308)" stroke-width=".3985" stroke-linecap="butt" stroke-miterlimit="10" stroke-linejoin="miter" fill="none" stroke="#000000" d="M0 106.3005V127.56062H85.04042V106.3005ZM85.04042 127.56062"/>
<path transform="matrix(1,0,0,-1.00003,1.4609985,233.53308)" stroke-width=".3985" stroke-linecap="butt" stroke-miterlimit="10" stroke-linejoin="miter" fill="none" stroke="#000000" d="M21.26009 106.3005V127.56062"/>
<path transform="matrix(1,0,0,-1.00003,1.4609985,233.53308)" stroke-width=".3985" stroke-linecap="butt" stroke-miterlimit="10" stroke-linejoin="miter" fill="none" stroke="#000000" d="M42.5202 106.3005V127.56062"/>
<path transform="matrix(1,0,0,-1.00003,1.4609985,233.53308)" stroke-width=".3985" stroke-linecap="butt" stroke-miterlimit="10" stroke-linejoin="miter" fill="none" stroke="#000000" d="M63.7803 106.3005V127.56062"/>
<path transform="matrix(1,0,0,-1.00003,1.4609985,233.53308)" stroke-width=".3985" stroke-linecap="butt" stroke-miterlimit="10" stroke-linejoin="miter" fill="none" stroke="#000000" d="M212.60106 102.04825C211.85388 100.55382 210.11037 99.55756 207.61968 99.55756H143.17208C140.68138 99.55756 138.93787 98.5613 138.19069 97.06686 137.44351 98.5613 135.7 99.55756 133.2093 99.55756H68.76169C66.271 99.55756 64.52748 100.55382 63.7803 102.04825"/>
<use data-text="?" xlink:href="#font_1_92" transform="matrix(9.9626,0,0,-9.962899,137.3,147.00748)"/>
</svg>
