<svg xmlns="http://www.w3.org/2000/svg" xmlns:xlink="http://www.w3.org/1999/xlink" xmlns:inkscape="http://www.inkscape.org/namespaces/inkscape" version="1.1" width="299" height="243" viewBox="0 0 299 243">
<defs>
<path id="font_1_82" d="M.4189911 0V.0309906H.3869934C.29699708 .0309906 .2939911 .041992189 .2939911 .07902527V.64012148C.2939911 .6640167 .2939911 .6660156 .2709961 .6660156 .20899964 .60227969 .12098694 .60227969 .08898926 .60227969V.57128909C.10899353 .57128909 .16799927 .57128909 .21998596 .5972748V.07902527C.21998596 .042999269 .21699524 .0309906 .1269989 .0309906H.09498596V0C.12998963 .0029907227 .21699524 .0029907227 .25698854 .0029907227 .29699708 .0029907227 .38398744 .0029907227 .4189911 0Z"/>
<path id="font_1_121" d="M.45999146 .31976319C.45999146 .39982606 .45498658 .47988893 .41999818 .5539398 .37399293 .65000918 .2919922 .6660156 .25 .6660156 .18998719 .6660156 .116989139 .64001467 .07598877 .54693606 .04399109 .47789 .038986207 .39982606 .038986207 .31976319 .038986207 .24472046 .042999269 .15464783 .083999637 .07859802 .1269989-.0024719239 .19999695-.022460938 .24899292-.022460938 .30299378-.022460938 .3789978-.0014648438 .4229889 .09359741 .45498658 .16265869 .45999146 .2407074 .45999146 .31976319M.3769989 .3317871C.3769989 .25672914 .3769989 .18867493 .3659973 .12461853 .35099793 .029556275 .2939911-.00047302247 .24899292-.00047302247 .20999146-.00047302247 .15098572 .024551392 .1329956 .12062073 .12199402 .18066406 .12199402 .2727356 .12199402 .3317871 .12199402 .39582826 .12199402 .46188355 .12998963 .5159149 .14898682 .63500979 .22399903 .64401248 .24899292 .64401248 .28199769 .64401248 .34799195 .6259918 .36698915 .52693179 .3769989 .47088624 .3769989 .39482118 .3769989 .3317871Z"/>
<path id="font_1_98" d="M.3600006 .12823487C.3600006 .18122864 .32998658 .21122742 .31799317 .22323609 .2849884 .25523377 .24598694 .26322938 .20399475 .27124024 .147995 .28224183 .08099365 .29522706 .08099365 .35324098 .08099365 .38822938 .10699463 .42922975 .19299317 .42922975 .30299378 .42922975 .30799867 .3392334 .30999757 .30822755 .31098939 .2992401 .32199098 .2992401 .32199098 .2992401 .33499146 .2992401 .33499146 .30422975 .33499146 .32322694V.4242401C.33499146 .4412384 .33499146 .4482422 .32398988 .4482422 .31900025 .4482422 .31698609 .4482422 .3039856 .43623353 .30099488 .43223573 .29100038 .42323304 .2869873 .42022706 .24899292 .4482422 .20799256 .4482422 .19299317 .4482422 .070999149 .4482422 .032989503 .38124085 .032989503 .3252411 .032989503 .29023744 .04899597 .26223756 .07598877 .24023438 .10798645 .2142334 .13598633 .2082367 .20799256 .19422913 .22999573 .19021607 .31199647 .17422486 .31199647 .10221863 .31199647 .051223756 .2769928 .011245728 .19898987 .011245728 .114990238 .011245728 .07899475 .068222049 .05999756 .1532135 .056991579 .16621399 .055999757 .17021179 .04598999 .17021179 .032989503 .17021179 .032989503 .16322327 .032989503 .1452179V.013214111C.032989503-.003753662 .032989503-.0107421879 .04399109-.0107421879 .04899597-.0107421879 .049987794-.009750366 .068984989 .009246826 .070999149 .011245728 .070999149 .013214111 .08898926 .032226564 .1329956-.009750366 .17799378-.0107421879 .19898987-.0107421879 .31399537-.0107421879 .3600006 .05621338 .3600006 .1282196V.12823487Z"/>
</defs>
<path transform="matrix(1.00005,0,0,-1.00005,2.0961533,241.33826)" stroke-width=".3985" stroke-linecap="butt" stroke-miterlimit="10" stroke-linejoin="miter" fill="none" stroke="#000000" d="M0 0V239.53108H294.8075V0ZM294.8075 239.53108"/>
<path transform="matrix(1.00005,0,0,-1.00005,2.0961533,241.33826)" stroke-width=".3985" stroke-linecap="butt" stroke-miterlimit="10" stroke-linejoin="miter" fill="none" stroke="#000000" d="M0 221.10562H294.8075"/>
<path transform="matrix(1.00005,0,0,-1.00005,2.0961533,241.33826)" stroke-width=".3985" stroke-linecap="butt" stroke-miterlimit="10" stroke-linejoin="miter" fill="none" stroke="#000000" d="M73.70186 0V239.53108"/>
<path transform="matrix(1.00005,0,0,-1.00005,2.0961533,241.33826)" stroke-width=".3985" stroke-linecap="butt" stroke-miterlimit="10" stroke-linejoin="miter" fill="none" stroke="#000000" d="M147.40375 0V239.53108"/>
<path transform="matrix(1.00005,0,0,-1.00005,2.0961533,241.33826)" stroke-width=".3985" stroke-linecap="butt" stroke-miterlimit="10" stroke-linejoin="miter" fill="none" stroke="#000000" d="M221.10562 0V239.53108"/>
<path transform="matrix(1.00005,0,0,-1.00005,2.0961533,241.33826)" stroke-width=".3985" stroke-linecap="butt" stroke-miterlimit="10" stroke-linejoin="miter" fill="none" stroke="#000000" d="M36.85092 230.31835"/>
<use data-text="1" xlink:href="#font_1_82" transform="matrix(9.963098,0,0,-9.963098,27.0224,14.216919)"/>
<use data-text="0" xlink:href="#font_1_121" transform="matrix(9.963098,0,0,-9.963098,32.003953,14.216919)"/>
<use data-text="0" xlink:href="#font_1_121" transform="matrix(9.963098,0,0,-9.963098,36.985498,14.216919)"/>
<use data-text="0" xlink:href="#font_1_121" transform="matrix(9.963098,0,0,-9.963098,41.96705,14.216919)"/>
<use data-text="s" xlink:href="#font_1_98" transform="matrix(9.963098,0,0,-9.963098,46.948595,14.216919)"/>
<path transform="matrix(1.00005,0,0,-1.00005,2.0961533,241.33826)" stroke-width=".3985" stroke-linecap="butt" stroke-miterlimit="10" stroke-linejoin="miter" fill="none" stroke="#000000" d="M110.55281 230.31835"/>
<use data-text="1" xlink:href="#font_1_82" transform="matrix(9.963098,0,0,-9.963098,103.2192,14.216919)"/>
<use data-text="0" xlink:href="#font_1_121" transform="matrix(9.963098,0,0,-9.963098,108.20075,14.216919)"/>
<use data-text="0" xlink:href="#font_1_121" transform="matrix(9.963098,0,0,-9.963098,113.1823,14.216919)"/>
<use data-text="s" xlink:href="#font_1_98" transform="matrix(9.963098,0,0,-9.963098,118.16385,14.216919)"/>
<path transform="matrix(1.00005,0,0,-1.00005,2.0961533,241.33826)" stroke-width=".3985" stroke-linecap="butt" stroke-miterlimit="10" stroke-linejoin="miter" fill="none" stroke="#000000" d="M184.25467 230.31835"/>
<use data-text="1" xlink:href="#font_1_82" transform="matrix(9.963098,0,0,-9.963098,179.41602,14.216919)"/>
<use data-text="0" xlink:href="#font_1_121" transform="matrix(9.963098,0,0,-9.963098,184.39756,14.216919)"/>
<use data-text="s" xlink:href="#font_1_98" transform="matrix(9.963098,0,0,-9.963098,189.3791,14.216919)"/>
<path transform="matrix(1.00005,0,0,-1.00005,2.0961533,241.33826)" stroke-width=".3985" stroke-linecap="butt" stroke-miterlimit="10" stroke-linejoin="miter" fill="none" stroke="#000000" d="M257.95658 230.31835"/>
<use data-text="1" xlink:href="#font_1_82" transform="matrix(9.963098,0,0,-9.963098,255.61182,14.27092)"/>
<use data-text="s" xlink:href="#font_1_98" transform="matrix(9.963098,0,0,-9.963098,260.59339,14.27092)"/>
<path transform="matrix(1.00005,0,0,-1.00005,2.0961533,241.33826)" stroke-width=".3985" stroke-linecap="butt" stroke-dasharray="2.98883,2.98883" stroke-miterlimit="10" stroke-linejoin="miter" fill="none" stroke="#000000" d="M0 36.85092H294.8075"/>
<path transform="matrix(1.00005,0,0,-1.00005,2.0961533,241.33826)" stroke-width=".3985" stroke-linecap="butt" stroke-dasharray="2.98883,2.98883" stroke-miterlimit="10" stroke-linejoin="miter" fill="none" stroke="#000000" d="M0 73.70186H294.8075"/>
<path transform="matrix(1.00005,0,0,-1.00005,2.0961533,241.33826)" stroke-width=".3985" stroke-linecap="butt" stroke-dasharray="2.98883,2.98883" stroke-miterlimit="10" stroke-linejoin="miter" fill="none" stroke="#000000" d="M0 110.55281H294.8075"/>
<path transform="matrix(1.00005,0,0,-1.00005,2.0961533,241.33826)" stroke-width=".3985" stroke-linecap="butt" stroke-dasharray="2.98883,2.98883" stroke-miterlimit="10" stroke-linejoin="miter" fill="none" stroke="#000000" d="M0 147.40375H294.8075"/>
<path transform="matrix(1.00005,0,0,-1.00005,2.0961533,241.33826)" stroke-width=".3985" stroke-linecap="butt" stroke-dasharray="2.98883,2.98883" stroke-miterlimit="10" stroke-linejoin="miter" fill="none" stroke="#000000" d="M0 184.25467H294.8075"/>
<path transform="matrix(1.00005,0,0,-1.00005,2.0961533,241.33826)" d="M87.99515 11.05537C87.99515 12.84363 86.5455 14.29327 84.75725 14.29327 82.969 14.29327 81.51935 12.84363 81.51935 11.05537 81.51935 9.26712 82.969 7.81747 84.75725 7.81747 86.5455 7.81747 87.99515 9.26712 87.99515 11.05537ZM84.75725 11.05537" fill="#2196f3"/>
<path transform="matrix(1.00005,0,0,-1.00005,2.0961533,241.33826)" d="M99.05054 11.05537C99.05054 12.84363 97.60089 14.29327 95.81264 14.29327 94.02438 14.29327 92.57474 12.84363 92.57474 11.05537 92.57474 9.26712 94.02438 7.81747 95.81264 7.81747 97.60089 7.81747 99.05054 9.26712 99.05054 11.05537ZM95.81264 11.05537" fill="#2196f3"/>
<path transform="matrix(1.00005,0,0,-1.00005,2.0961533,241.33826)" d="M110.10594 11.05537C110.10594 12.84363 108.6563 14.29327 106.86804 14.29327 105.07979 14.29327 103.63014 12.84363 103.63014 11.05537 103.63014 9.26712 105.07979 7.81747 106.86804 7.81747 108.6563 7.81747 110.10594 9.26712 110.10594 11.05537ZM106.86804 11.05537" fill="#2196f3"/>
<path transform="matrix(1.00005,0,0,-1.00005,2.0961533,241.33826)" d="M161.69702 11.05537C161.69702 12.84363 160.24738 14.29327 158.45912 14.29327 156.67087 14.29327 155.22122 12.84363 155.22122 11.05537 155.22122 9.26712 156.67087 7.81747 158.45912 7.81747 160.24738 7.81747 161.69702 9.26712 161.69702 11.05537ZM158.45912 11.05537" fill="#2196f3"/>
<path transform="matrix(1.00005,0,0,-1.00005,2.0961533,241.33826)" d="M172.75241 11.05537C172.75241 12.84363 171.30277 14.29327 169.51451 14.29327 167.72626 14.29327 166.27661 12.84363 166.27661 11.05537 166.27661 9.26712 167.72626 7.81747 169.51451 7.81747 171.30277 7.81747 172.75241 9.26712 172.75241 11.05537ZM169.51451 11.05537" fill="#2196f3"/>
<path transform="matrix(1.00005,0,0,-1.00005,2.0961533,241.33826)" d="M183.80783 11.05537C183.80783 12.84363 182.35819 14.29327 180.56993 14.29327 178.78168 14.29327 177.33203 12.84363 177.33203 11.05537 177.33203 9.26712 178.78168 7.81747 180.56993 7.81747 182.35819 7.81747 183.80783 9.26712 183.80783 11.05537ZM180.56993 11.05537" fill="#2196f3"/>
<path transform="matrix(1.00005,0,0,-1.00005,2.0961533,241.33826)" d="M161.69702 22.11075C161.69702 23.899 160.24738 25.34865 158.45912 25.34865 156.67087 25.34865 155.22122 23.899 155.22122 22.11075 155.22122 20.3225 156.67087 18.87285 158.45912 18.87285 160.24738 18.87285 161.69702 20.3225 161.69702 22.11075ZM158.45912 22.11075" fill="#2196f3"/>
<path transform="matrix(1.00005,0,0,-1.00005,2.0961533,241.33826)" d="M172.75241 22.11075C172.75241 23.899 171.30277 25.34865 169.51451 25.34865 167.72626 25.34865 166.27661 23.899 166.27661 22.11075 166.27661 20.3225 167.72626 18.87285 169.51451 18.87285 171.30277 18.87285 172.75241 20.3225 172.75241 22.11075ZM169.51451 22.11075" fill="#2196f3"/>
<path transform="matrix(1.00005,0,0,-1.00005,2.0961533,241.33826)" d="M183.80783 22.11075C183.80783 23.899 182.35819 25.34865 180.56993 25.34865 178.78168 25.34865 177.33203 23.899 177.33203 22.11075 177.33203 20.3225 178.78168 18.87285 180.56993 18.87285 182.35819 18.87285 183.80783 20.3225 183.80783 22.11075ZM180.56993 22.11075" fill="#2196f3"/>
<path transform="matrix(1.00005,0,0,-1.00005,2.0961533,241.33826)" d="M235.39891 11.05537C235.39891 12.84363 233.94927 14.29327 232.16101 14.29327 230.37274 14.29327 228.92311 12.84363 228.92311 11.05537 228.92311 9.26712 230.37274 7.81747 232.16101 7.81747 233.94927 7.81747 235.39891 9.26712 235.39891 11.05537ZM232.16101 11.05537" fill="#2196f3"/>
<path transform="matrix(1.00005,0,0,-1.00005,2.0961533,241.33826)" d="M246.4543 11.05537C246.4543 12.84363 245.00466 14.29327 243.2164 14.29327 241.42815 14.29327 239.9785 12.84363 239.9785 11.05537 239.9785 9.26712 241.42815 7.81747 243.2164 7.81747 245.00466 7.81747 246.4543 9.26712 246.4543 11.05537ZM243.2164 11.05537" fill="#2196f3"/>
<path transform="matrix(1.00005,0,0,-1.00005,2.0961533,241.33826)" d="M257.5097 11.05537C257.5097 12.84363 256.06004 14.29327 254.27179 14.29327 252.48354 14.29327 251.03389 12.84363 251.03389 11.05537 251.03389 9.26712 252.48354 7.81747 254.27179 7.81747 256.06004 7.81747 257.5097 9.26712 257.5097 11.05537ZM254.27179 11.05537" fill="#2196f3"/>
<path transform="matrix(1.00005,0,0,-1.00005,2.0961533,241.33826)" d="M268.5651 11.05537C268.5651 12.84363 267.11546 14.29327 265.3272 14.29327 263.53895 14.29327 262.0893 12.84363 262.0893 11.05537 262.0893 9.26712 263.53895 7.81747 265.3272 7.81747 267.11546 7.81747 268.5651 9.26712 268.5651 11.05537ZM265.3272 11.05537" fill="#2196f3"/>
<path transform="matrix(1.00005,0,0,-1.00005,2.0961533,241.33826)" d="M235.39891 22.11075C235.39891 23.899 233.94927 25.34865 232.16101 25.34865 230.37274 25.34865 228.92311 23.899 228.92311 22.11075 228.92311 20.3225 230.37274 18.87285 232.16101 18.87285 233.94927 18.87285 235.39891 20.3225 235.39891 22.11075ZM232.16101 22.11075" fill="#2196f3"/>
<path transform="matrix(1.00005,0,0,-1.00005,2.0961533,241.33826)" d="M246.4543 22.11075C246.4543 23.899 245.00466 25.34865 243.2164 25.34865 241.42815 25.34865 239.9785 23.899 239.9785 22.11075 239.9785 20.3225 241.42815 18.87285 243.2164 18.87285 245.00466 18.87285 246.4543 20.3225 246.4543 22.11075ZM243.2164 22.11075" fill="#2196f3"/>
<path transform="matrix(1.00005,0,0,-1.00005,2.0961533,241.33826)" d="M257.5097 22.11075C257.5097 23.899 256.06004 25.34865 254.27179 25.34865 252.48354 25.34865 251.03389 23.899 251.03389 22.11075 251.03389 20.3225 252.48354 18.87285 254.27179 18.87285 256.06004 18.87285 257.5097 20.3225 257.5097 22.11075ZM254.27179 22.11075" fill="#2196f3"/>
<path transform="matrix(1.00005,0,0,-1.00005,2.0961533,241.33826)" d="M87.99515 47.90631C87.99515 49.69456 86.5455 51.14421 84.75725 51.14421 82.969 51.14421 81.51935 49.69456 81.51935 47.90631 81.51935 46.11806 82.969 44.66841 84.75725 44.66841 86.5455 44.66841 87.99515 46.11806 87.99515 47.90631ZM84.75725 47.90631" fill="#2196f3"/>
<path transform="matrix(1.00005,0,0,-1.00005,2.0961533,241.33826)" d="M99.05054 47.90631C99.05054 49.69456 97.60089 51.14421 95.81264 51.14421 94.02438 51.14421 92.57474 49.69456 92.57474 47.90631 92.57474 46.11806 94.02438 44.66841 95.81264 44.66841 97.60089 44.66841 99.05054 46.11806 99.05054 47.90631ZM95.81264 47.90631" fill="#2196f3"/>
<path transform="matrix(1.00005,0,0,-1.00005,2.0961533,241.33826)" d="M110.10594 47.90631C110.10594 49.69456 108.6563 51.14421 106.86804 51.14421 105.07979 51.14421 103.63014 49.69456 103.63014 47.90631 103.63014 46.11806 105.07979 44.66841 106.86804 44.66841 108.6563 44.66841 110.10594 46.11806 110.10594 47.90631ZM106.86804 47.90631" fill="#2196f3"/>
<path transform="matrix(1.00005,0,0,-1.00005,2.0961533,241.33826)" d="M161.69702 47.90631C161.69702 49.69456 160.24738 51.14421 158.45912 51.14421 156.67087 51.14421 155.22122 49.69456 155.22122 47.90631 155.22122 46.11806 156.67087 44.66841 158.45912 44.66841 160.24738 44.66841 161.69702 46.11806 161.69702 47.90631ZM158.45912 47.90631" fill="#2196f3"/>
<path transform="matrix(1.00005,0,0,-1.00005,2.0961533,241.33826)" d="M172.75241 47.90631C172.75241 49.69456 171.30277 51.14421 169.51451 51.14421 167.72626 51.14421 166.27661 49.69456 166.27661 47.90631 166.27661 46.11806 167.72626 44.66841 169.51451 44.66841 171.30277 44.66841 172.75241 46.11806 172.75241 47.90631ZM169.51451 47.90631" fill="#2196f3"/>
<path transform="matrix(1.00005,0,0,-1.00005,2.0961533,241.33826)" d="M183.80783 47.90631C183.80783 49.69456 182.35819 51.14421 180.56993 51.14421 178.78168 51.14421 177.33203 49.69456 177.33203 47.90631 177.33203 46.11806 178.78168 44.66841 180.56993 44.66841 182.35819 44.66841 183.80783 46.11806 183.80783 47.90631ZM180.56993 47.90631" fill="#2196f3"/>
<path transform="matrix(1.00005,0,0,-1.00005,2.0961533,241.33826)" d="M161.69702 58.9617C161.69702 60.74995 160.24738 62.1996 158.45912 62.1996 156.67087 62.1996 155.22122 60.74995 155.22122 58.9617 155.22122 57.17345 156.67087 55.7238 158.45912 55.7238 160.24738 55.7238 161.69702 57.17345 161.69702 58.9617ZM158.45912 58.9617" fill="#2196f3"/>
<path transform="matrix(1.00005,0,0,-1.00005,2.0961533,241.33826)" d="M172.75241 58.9617C172.75241 60.74995 171.30277 62.1996 169.51451 62.1996 167.72626 62.1996 166.27661 60.74995 166.27661 58.9617 166.27661 57.17345 167.72626 55.7238 169.51451 55.7238 171.30277 55.7238 172.75241 57.17345 172.75241 58.9617ZM169.51451 58.9617" fill="#2196f3"/>
<path transform="matrix(1.00005,0,0,-1.00005,2.0961533,241.33826)" d="M183.80783 58.9617C183.80783 60.74995 182.35819 62.1996 180.56993 62.1996 178.78168 62.1996 177.33203 60.74995 177.33203 58.9617 177.33203 57.17345 178.78168 55.7238 180.56993 55.7238 182.35819 55.7238 183.80783 57.17345 183.80783 58.9617ZM180.56993 58.9617" fill="#2196f3"/>
<path transform="matrix(1.00005,0,0,-1.00005,2.0961533,241.33826)" d="M235.39891 47.90631C235.39891 49.69456 233.94927 51.14421 232.16101 51.14421 230.37274 51.14421 228.92311 49.69456 228.92311 47.90631 228.92311 46.11806 230.37274 44.66841 232.16101 44.66841 233.94927 44.66841 235.39891 46.11806 235.39891 47.90631ZM232.16101 47.90631" fill="#2196f3"/>
<path transform="matrix(1.00005,0,0,-1.00005,2.0961533,241.33826)" d="M246.4543 47.90631C246.4543 49.69456 245.00466 51.14421 243.2164 51.14421 241.42815 51.14421 239.9785 49.69456 239.9785 47.90631 239.9785 46.11806 241.42815 44.66841 243.2164 44.66841 245.00466 44.66841 246.4543 46.11806 246.4543 47.90631ZM243.2164 47.90631" fill="#2196f3"/>
<path transform="matrix(1.00005,0,0,-1.00005,2.0961533,241.33826)" d="M257.5097 47.90631C257.5097 49.69456 256.06004 51.14421 254.27179 51.14421 252.48354 51.14421 251.03389 49.69456 251.03389 47.90631 251.03389 46.11806 252.48354 44.66841 254.27179 44.66841 256.06004 44.66841 257.5097 46.11806 257.5097 47.90631ZM254.27179 47.90631" fill="#2196f3"/>
<path transform="matrix(1.00005,0,0,-1.00005,2.0961533,241.33826)" d="M268.5651 47.90631C268.5651 49.69456 267.11546 51.14421 265.3272 51.14421 263.53895 51.14421 262.0893 49.69456 262.0893 47.90631 262.0893 46.11806 263.53895 44.66841 265.3272 44.66841 267.11546 44.66841 268.5651 46.11806 268.5651 47.90631ZM265.3272 47.90631" fill="#2196f3"/>
<path transform="matrix(1.00005,0,0,-1.00005,2.0961533,241.33826)" d="M235.39891 58.9617C235.39891 60.74995 233.94927 62.1996 232.16101 62.1996 230.37274 62.1996 228.92311 60.74995 228.92311 58.9617 228.92311 57.17345 230.37274 55.7238 232.16101 55.7238 233.94927 55.7238 235.39891 57.17345 235.39891 58.9617ZM232.16101 58.9617" fill="#2196f3"/>
<path transform="matrix(1.00005,0,0,-1.00005,2.0961533,241.33826)" d="M246.4543 58.9617C246.4543 60.74995 245.00466 62.1996 243.2164 62.1996 241.42815 62.1996 239.9785 60.74995 239.9785 58.9617 239.9785 57.17345 241.42815 55.7238 243.2164 55.7238 245.00466 55.7238 246.4543 57.17345 246.4543 58.9617ZM243.2164 58.9617" fill="#2196f3"/>
<path transform="matrix(1.00005,0,0,-1.00005,2.0961533,241.33826)" d="M257.5097 58.9617C257.5097 60.74995 256.06004 62.1996 254.27179 62.1996 252.48354 62.1996 251.03389 60.74995 251.03389 58.9617 251.03389 57.17345 252.48354 55.7238 254.27179 55.7238 256.06004 55.7238 257.5097 57.17345 257.5097 58.9617ZM254.27179 58.9617" fill="#2196f3"/>
<path transform="matrix(1.00005,0,0,-1.00005,2.0961533,241.33826)" d="M87.99515 84.75725C87.99515 86.5455 86.5455 87.99515 84.75725 87.99515 82.969 87.99515 81.51935 86.5455 81.51935 84.75725 81.51935 82.969 82.969 81.51935 84.75725 81.51935 86.5455 81.51935 87.99515 82.969 87.99515 84.75725ZM84.75725 84.75725" fill="#2196f3"/>
<path transform="matrix(1.00005,0,0,-1.00005,2.0961533,241.33826)" d="M99.05054 84.75725C99.05054 86.5455 97.60089 87.99515 95.81264 87.99515 94.02438 87.99515 92.57474 86.5455 92.57474 84.75725 92.57474 82.969 94.02438 81.51935 95.81264 81.51935 97.60089 81.51935 99.05054 82.969 99.05054 84.75725ZM95.81264 84.75725" fill="#2196f3"/>
<path transform="matrix(1.00005,0,0,-1.00005,2.0961533,241.33826)" d="M110.10594 84.75725C110.10594 86.5455 108.6563 87.99515 106.86804 87.99515 105.07979 87.99515 103.63014 86.5455 103.63014 84.75725 103.63014 82.969 105.07979 81.51935 106.86804 81.51935 108.6563 81.51935 110.10594 82.969 110.10594 84.75725ZM106.86804 84.75725" fill="#2196f3"/>
<path transform="matrix(1.00005,0,0,-1.00005,2.0961533,241.33826)" d="M161.69702 84.75725C161.69702 86.5455 160.24738 87.99515 158.45912 87.99515 156.67087 87.99515 155.22122 86.5455 155.22122 84.75725 155.22122 82.969 156.67087 81.51935 158.45912 81.51935 160.24738 81.51935 161.69702 82.969 161.69702 84.75725ZM158.45912 84.75725" fill="#2196f3"/>
<path transform="matrix(1.00005,0,0,-1.00005,2.0961533,241.33826)" d="M172.75241 84.75725C172.75241 86.5455 171.30277 87.99515 169.51451 87.99515 167.72626 87.99515 166.27661 86.5455 166.27661 84.75725 166.27661 82.969 167.72626 81.51935 169.51451 81.51935 171.30277 81.51935 172.75241 82.969 172.75241 84.75725ZM169.51451 84.75725" fill="#2196f3"/>
<path transform="matrix(1.00005,0,0,-1.00005,2.0961533,241.33826)" d="M183.80783 84.75725C183.80783 86.5455 182.35819 87.99515 180.56993 87.99515 178.78168 87.99515 177.33203 86.5455 177.33203 84.75725 177.33203 82.969 178.78168 81.51935 180.56993 81.51935 182.35819 81.51935 183.80783 82.969 183.80783 84.75725ZM180.56993 84.75725" fill="#2196f3"/>
<path transform="matrix(1.00005,0,0,-1.00005,2.0961533,241.33826)" d="M161.69702 95.81264C161.69702 97.60089 160.24738 99.05054 158.45912 99.05054 156.67087 99.05054 155.22122 97.60089 155.22122 95.81264 155.22122 94.02438 156.67087 92.57474 158.45912 92.57474 160.24738 92.57474 161.69702 94.02438 161.69702 95.81264ZM158.45912 95.81264" fill="#2196f3"/>
<path transform="matrix(1.00005,0,0,-1.00005,2.0961533,241.33826)" d="M172.75241 95.81264C172.75241 97.60089 171.30277 99.05054 169.51451 99.05054 167.72626 99.05054 166.27661 97.60089 166.27661 95.81264 166.27661 94.02438 167.72626 92.57474 169.51451 92.57474 171.30277 92.57474 172.75241 94.02438 172.75241 95.81264ZM169.51451 95.81264" fill="#2196f3"/>
<path transform="matrix(1.00005,0,0,-1.00005,2.0961533,241.33826)" d="M183.80783 95.81264C183.80783 97.60089 182.35819 99.05054 180.56993 99.05054 178.78168 99.05054 177.33203 97.60089 177.33203 95.81264 177.33203 94.02438 178.78168 92.57474 180.56993 92.57474 182.35819 92.57474 183.80783 94.02438 183.80783 95.81264ZM180.56993 95.81264" fill="#2196f3"/>
<path transform="matrix(1.00005,0,0,-1.00005,2.0961533,241.33826)" d="M235.39891 84.75725C235.39891 86.5455 233.94927 87.99515 232.16101 87.99515 230.37274 87.99515 228.92311 86.5455 228.92311 84.75725 228.92311 82.969 230.37274 81.51935 232.16101 81.51935 233.94927 81.51935 235.39891 82.969 235.39891 84.75725ZM232.16101 84.75725" fill="#2196f3"/>
<path transform="matrix(1.00005,0,0,-1.00005,2.0961533,241.33826)" d="M246.4543 84.75725C246.4543 86.5455 245.00466 87.99515 243.2164 87.99515 241.42815 87.99515 239.9785 86.5455 239.9785 84.75725 239.9785 82.969 241.42815 81.51935 243.2164 81.51935 245.00466 81.51935 246.4543 82.969 246.4543 84.75725ZM243.2164 84.75725" fill="#2196f3"/>
<path transform="matrix(1.00005,0,0,-1.00005,2.0961533,241.33826)" d="M257.5097 84.75725C257.5097 86.5455 256.06004 87.99515 254.27179 87.99515 252.48354 87.99515 251.03389 86.5455 251.03389 84.75725 251.03389 82.969 252.48354 81.51935 254.27179 81.51935 256.06004 81.51935 257.5097 82.969 257.5097 84.75725ZM254.27179 84.75725" fill="#2196f3"/>
<path transform="matrix(1.00005,0,0,-1.00005,2.0961533,241.33826)" d="M268.5651 84.75725C268.5651 86.5455 267.11546 87.99515 265.3272 87.99515 263.53895 87.99515 262.0893 86.5455 262.0893 84.75725 262.0893 82.969 263.53895 81.51935 265.3272 81.51935 267.11546 81.51935 268.5651 82.969 268.5651 84.75725ZM265.3272 84.75725" fill="#2196f3"/>
<path transform="matrix(1.00005,0,0,-1.00005,2.0961533,241.33826)" d="M235.39891 95.81264C235.39891 97.60089 233.94927 99.05054 232.16101 99.05054 230.37274 99.05054 228.92311 97.60089 228.92311 95.81264 228.92311 94.02438 230.37274 92.57474 232.16101 92.57474 233.94927 92.57474 235.39891 94.02438 235.39891 95.81264ZM232.16101 95.81264" fill="#2196f3"/>
<path transform="matrix(1.00005,0,0,-1.00005,2.0961533,241.33826)" d="M246.4543 95.81264C246.4543 97.60089 245.00466 99.05054 243.2164 99.05054 241.42815 99.05054 239.9785 97.60089 239.9785 95.81264 239.9785 94.02438 241.42815 92.57474 243.2164 92.57474 245.00466 92.57474 246.4543 94.02438 246.4543 95.81264ZM243.2164 95.81264" fill="#2196f3"/>
<path transform="matrix(1.00005,0,0,-1.00005,2.0961533,241.33826)" d="M257.5097 95.81264C257.5097 97.60089 256.06004 99.05054 254.27179 99.05054 252.48354 99.05054 251.03389 97.60089 251.03389 95.81264 251.03389 94.02438 252.48354 92.57474 254.27179 92.57474 256.06004 92.57474 257.5097 94.02438 257.5097 95.81264ZM254.27179 95.81264" fill="#2196f3"/>
<path transform="matrix(1.00005,0,0,-1.00005,2.0961533,241.33826)" d="M87.99515 121.60818C87.99515 123.39644 86.5455 124.84608 84.75725 124.84608 82.969 124.84608 81.51935 123.39644 81.51935 121.60818 81.51935 119.81993 82.969 118.37029 84.75725 118.37029 86.5455 118.37029 87.99515 119.81993 87.99515 121.60818ZM84.75725 121.60818" fill="#2196f3"/>
<path transform="matrix(1.00005,0,0,-1.00005,2.0961533,241.33826)" d="M99.05054 121.60818C99.05054 123.39644 97.60089 124.84608 95.81264 124.84608 94.02438 124.84608 92.57474 123.39644 92.57474 121.60818 92.57474 119.81993 94.02438 118.37029 95.81264 118.37029 97.60089 118.37029 99.05054 119.81993 99.05054 121.60818ZM95.81264 121.60818" fill="#2196f3"/>
<path transform="matrix(1.00005,0,0,-1.00005,2.0961533,241.33826)" d="M110.10594 121.60818C110.10594 123.39644 108.6563 124.84608 106.86804 124.84608 105.07979 124.84608 103.63014 123.39644 103.63014 121.60818 103.63014 119.81993 105.07979 118.37029 106.86804 118.37029 108.6563 118.37029 110.10594 119.81993 110.10594 121.60818ZM106.86804 121.60818" fill="#2196f3"/>
<path transform="matrix(1.00005,0,0,-1.00005,2.0961533,241.33826)" d="M161.69702 121.60818C161.69702 123.39644 160.24738 124.84608 158.45912 124.84608 156.67087 124.84608 155.22122 123.39644 155.22122 121.60818 155.22122 119.81993 156.67087 118.37029 158.45912 118.37029 160.24738 118.37029 161.69702 119.81993 161.69702 121.60818ZM158.45912 121.60818" fill="#2196f3"/>
<path transform="matrix(1.00005,0,0,-1.00005,2.0961533,241.33826)" d="M172.75241 121.60818C172.75241 123.39644 171.30277 124.84608 169.51451 124.84608 167.72626 124.84608 166.27661 123.39644 166.27661 121.60818 166.27661 119.81993 167.72626 118.37029 169.51451 118.37029 171.30277 118.37029 172.75241 119.81993 172.75241 121.60818ZM169.51451 121.60818" fill="#2196f3"/>
<path transform="matrix(1.00005,0,0,-1.00005,2.0961533,241.33826)" d="M183.80783 121.60818C183.80783 123.39644 182.35819 124.84608 180.56993 124.84608 178.78168 124.84608 177.33203 123.39644 177.33203 121.60818 177.33203 119.81993 178.78168 118.37029 180.56993 118.37029 182.35819 118.37029 183.80783 119.81993 183.80783 121.60818ZM180.56993 121.60818" fill="#2196f3"/>
<path transform="matrix(1.00005,0,0,-1.00005,2.0961533,241.33826)" d="M161.69702 132.66358C161.69702 134.45183 160.24738 135.90148 158.45912 135.90148 156.67087 135.90148 155.22122 134.45183 155.22122 132.66358 155.22122 130.87532 156.67087 129.42568 158.45912 129.42568 160.24738 129.42568 161.69702 130.87532 161.69702 132.66358ZM158.45912 132.66358" fill="#2196f3"/>
<path transform="matrix(1.00005,0,0,-1.00005,2.0961533,241.33826)" d="M172.75241 132.66358C172.75241 134.45183 171.30277 135.90148 169.51451 135.90148 167.72626 135.90148 166.27661 134.45183 166.27661 132.66358 166.27661 130.87532 167.72626 129.42568 169.51451 129.42568 171.30277 129.42568 172.75241 130.87532 172.75241 132.66358ZM169.51451 132.66358" fill="#2196f3"/>
<path transform="matrix(1.00005,0,0,-1.00005,2.0961533,241.33826)" d="M183.80783 132.66358C183.80783 134.45183 182.35819 135.90148 180.56993 135.90148 178.78168 135.90148 177.33203 134.45183 177.33203 132.66358 177.33203 130.87532 178.78168 129.42568 180.56993 129.42568 182.35819 129.42568 183.80783 130.87532 183.80783 132.66358ZM180.56993 132.66358" fill="#2196f3"/>
<path transform="matrix(1.00005,0,0,-1.00005,2.0961533,241.33826)" d="M235.39891 121.60818C235.39891 123.39644 233.94927 124.84608 232.16101 124.84608 230.37274 124.84608 228.92311 123.39644 228.92311 121.60818 228.92311 119.81993 230.37274 118.37029 232.16101 118.37029 233.94927 118.37029 235.39891 119.81993 235.39891 121.60818ZM232.16101 121.60818" fill="#2196f3"/>
<path transform="matrix(1.00005,0,0,-1.00005,2.0961533,241.33826)" d="M246.4543 121.60818C246.4543 123.39644 245.00466 124.84608 243.2164 124.84608 241.42815 124.84608 239.9785 123.39644 239.9785 121.60818 239.9785 119.81993 241.42815 118.37029 243.2164 118.37029 245.00466 118.37029 246.4543 119.81993 246.4543 121.60818ZM243.2164 121.60818" fill="#2196f3"/>
<path transform="matrix(1.00005,0,0,-1.00005,2.0961533,241.33826)" d="M257.5097 121.60818C257.5097 123.39644 256.06004 124.84608 254.27179 124.84608 252.48354 124.84608 251.03389 123.39644 251.03389 121.60818 251.03389 119.81993 252.48354 118.37029 254.27179 118.37029 256.06004 118.37029 257.5097 119.81993 257.5097 121.60818ZM254.27179 121.60818" fill="#2196f3"/>
<path transform="matrix(1.00005,0,0,-1.00005,2.0961533,241.33826)" d="M268.5651 121.60818C268.5651 123.39644 267.11546 124.84608 265.3272 124.84608 263.53895 124.84608 262.0893 123.39644 262.0893 121.60818 262.0893 119.81993 263.53895 118.37029 265.3272 118.37029 267.11546 118.37029 268.5651 119.81993 268.5651 121.60818ZM265.3272 121.60818" fill="#2196f3"/>
<path transform="matrix(1.00005,0,0,-1.00005,2.0961533,241.33826)" d="M235.39891 132.66358C235.39891 134.45183 233.94927 135.90148 232.16101 135.90148 230.37274 135.90148 228.92311 134.45183 228.92311 132.66358 228.92311 130.87532 230.37274 129.42568 232.16101 129.42568 233.94927 129.42568 235.39891 130.87532 235.39891 132.66358ZM232.16101 132.66358" fill="#2196f3"/>
<path transform="matrix(1.00005,0,0,-1.00005,2.0961533,241.33826)" d="M246.4543 132.66358C246.4543 134.45183 245.00466 135.90148 243.2164 135.90148 241.42815 135.90148 239.9785 134.45183 239.9785 132.66358 239.9785 130.87532 241.42815 129.42568 243.2164 129.42568 245.00466 129.42568 246.4543 130.87532 246.4543 132.66358ZM243.2164 132.66358" fill="#2196f3"/>
<path transform="matrix(1.00005,0,0,-1.00005,2.0961533,241.33826)" d="M257.5097 132.66358C257.5097 134.45183 256.06004 135.90148 254.27179 135.90148 252.48354 135.90148 251.03389 134.45183 251.03389 132.66358 251.03389 130.87532 252.48354 129.42568 254.27179 129.42568 256.06004 129.42568 257.5097 130.87532 257.5097 132.66358ZM254.27179 132.66358" fill="#2196f3"/>
<path transform="matrix(1.00005,0,0,-1.00005,2.0961533,241.33826)" d="M87.99515 158.45912C87.99515 160.24738 86.5455 161.69702 84.75725 161.69702 82.969 161.69702 81.51935 160.24738 81.51935 158.45912 81.51935 156.67087 82.969 155.22122 84.75725 155.22122 86.5455 155.22122 87.99515 156.67087 87.99515 158.45912ZM84.75725 158.45912" fill="#2196f3"/>
<path transform="matrix(1.00005,0,0,-1.00005,2.0961533,241.33826)" d="M99.05054 158.45912C99.05054 160.24738 97.60089 161.69702 95.81264 161.69702 94.02438 161.69702 92.57474 160.24738 92.57474 158.45912 92.57474 156.67087 94.02438 155.22122 95.81264 155.22122 97.60089 155.22122 99.05054 156.67087 99.05054 158.45912ZM95.81264 158.45912" fill="#2196f3"/>
<path transform="matrix(1.00005,0,0,-1.00005,2.0961533,241.33826)" d="M110.10594 158.45912C110.10594 160.24738 108.6563 161.69702 106.86804 161.69702 105.07979 161.69702 103.63014 160.24738 103.63014 158.45912 103.63014 156.67087 105.07979 155.22122 106.86804 155.22122 108.6563 155.22122 110.10594 156.67087 110.10594 158.45912ZM106.86804 158.45912" fill="#2196f3"/>
<path transform="matrix(1.00005,0,0,-1.00005,2.0961533,241.33826)" d="M161.69702 158.45912C161.69702 160.24738 160.24738 161.69702 158.45912 161.69702 156.67087 161.69702 155.22122 160.24738 155.22122 158.45912 155.22122 156.67087 156.67087 155.22122 158.45912 155.22122 160.24738 155.22122 161.69702 156.67087 161.69702 158.45912ZM158.45912 158.45912" fill="#2196f3"/>
<path transform="matrix(1.00005,0,0,-1.00005,2.0961533,241.33826)" d="M172.75241 158.45912C172.75241 160.24738 171.30277 161.69702 169.51451 161.69702 167.72626 161.69702 166.27661 160.24738 166.27661 158.45912 166.27661 156.67087 167.72626 155.22122 169.51451 155.22122 171.30277 155.22122 172.75241 156.67087 172.75241 158.45912ZM169.51451 158.45912" fill="#2196f3"/>
<path transform="matrix(1.00005,0,0,-1.00005,2.0961533,241.33826)" d="M183.80783 158.45912C183.80783 160.24738 182.35819 161.69702 180.56993 161.69702 178.78168 161.69702 177.33203 160.24738 177.33203 158.45912 177.33203 156.67087 178.78168 155.22122 180.56993 155.22122 182.35819 155.22122 183.80783 156.67087 183.80783 158.45912ZM180.56993 158.45912" fill="#2196f3"/>
<path transform="matrix(1.00005,0,0,-1.00005,2.0961533,241.33826)" d="M161.69702 169.51451C161.69702 171.30277 160.24738 172.75241 158.45912 172.75241 156.67087 172.75241 155.22122 171.30277 155.22122 169.51451 155.22122 167.72626 156.67087 166.27661 158.45912 166.27661 160.24738 166.27661 161.69702 167.72626 161.69702 169.51451ZM158.45912 169.51451" fill="#2196f3"/>
<path transform="matrix(1.00005,0,0,-1.00005,2.0961533,241.33826)" d="M172.75241 169.51451C172.75241 171.30277 171.30277 172.75241 169.51451 172.75241 167.72626 172.75241 166.27661 171.30277 166.27661 169.51451 166.27661 167.72626 167.72626 166.27661 169.51451 166.27661 171.30277 166.27661 172.75241 167.72626 172.75241 169.51451ZM169.51451 169.51451" fill="#2196f3"/>
<path transform="matrix(1.00005,0,0,-1.00005,2.0961533,241.33826)" d="M183.80783 169.51451C183.80783 171.30277 182.35819 172.75241 180.56993 172.75241 178.78168 172.75241 177.33203 171.30277 177.33203 169.51451 177.33203 167.72626 178.78168 166.27661 180.56993 166.27661 182.35819 166.27661 183.80783 167.72626 183.80783 169.51451ZM180.56993 169.51451" fill="#2196f3"/>
<path transform="matrix(1.00005,0,0,-1.00005,2.0961533,241.33826)" d="M235.39891 158.45912C235.39891 160.24738 233.94927 161.69702 232.16101 161.69702 230.37274 161.69702 228.92311 160.24738 228.92311 158.45912 228.92311 156.67087 230.37274 155.22122 232.16101 155.22122 233.94927 155.22122 235.39891 156.67087 235.39891 158.45912ZM232.16101 158.45912" fill="#2196f3"/>
<path transform="matrix(1.00005,0,0,-1.00005,2.0961533,241.33826)" d="M246.4543 158.45912C246.4543 160.24738 245.00466 161.69702 243.2164 161.69702 241.42815 161.69702 239.9785 160.24738 239.9785 158.45912 239.9785 156.67087 241.42815 155.22122 243.2164 155.22122 245.00466 155.22122 246.4543 156.67087 246.4543 158.45912ZM243.2164 158.45912" fill="#2196f3"/>
<path transform="matrix(1.00005,0,0,-1.00005,2.0961533,241.33826)" d="M257.5097 158.45912C257.5097 160.24738 256.06004 161.69702 254.27179 161.69702 252.48354 161.69702 251.03389 160.24738 251.03389 158.45912 251.03389 156.67087 252.48354 155.22122 254.27179 155.22122 256.06004 155.22122 257.5097 156.67087 257.5097 158.45912ZM254.27179 158.45912" fill="#2196f3"/>
<path transform="matrix(1.00005,0,0,-1.00005,2.0961533,241.33826)" d="M268.5651 158.45912C268.5651 160.24738 267.11546 161.69702 265.3272 161.69702 263.53895 161.69702 262.0893 160.24738 262.0893 158.45912 262.0893 156.67087 263.53895 155.22122 265.3272 155.22122 267.11546 155.22122 268.5651 156.67087 268.5651 158.45912ZM265.3272 158.45912" fill="#2196f3"/>
<path transform="matrix(1.00005,0,0,-1.00005,2.0961533,241.33826)" d="M235.39891 169.51451C235.39891 171.30277 233.94927 172.75241 232.16101 172.75241 230.37274 172.75241 228.92311 171.30277 228.92311 169.51451 228.92311 167.72626 230.37274 166.27661 232.16101 166.27661 233.94927 166.27661 235.39891 167.72626 235.39891 169.51451ZM232.16101 169.51451" fill="#2196f3"/>
<path transform="matrix(1.00005,0,0,-1.00005,2.0961533,241.33826)" d="M246.4543 169.51451C246.4543 171.30277 245.00466 172.75241 243.2164 172.75241 241.42815 172.75241 239.9785 171.30277 239.9785 169.51451 239.9785 167.72626 241.42815 166.27661 243.2164 166.27661 245.00466 166.27661 246.4543 167.72626 246.4543 169.51451ZM243.2164 169.51451" fill="#2196f3"/>
<path transform="matrix(1.00005,0,0,-1.00005,2.0961533,241.33826)" d="M257.5097 169.51451C257.5097 171.30277 256.06004 172.75241 254.27179 172.75241 252.48354 172.75241 251.03389 171.30277 251.03389 169.51451 251.03389 167.72626 252.48354 166.27661 254.27179 166.27661 256.06004 166.27661 257.5097 167.72626 257.5097 169.51451ZM254.27179 169.51451" fill="#2196f3"/>
<path transform="matrix(1.00005,0,0,-1.00005,2.0961533,241.33826)" d="M87.99515 195.31008C87.99515 197.09833 86.5455 198.54798 84.75725 198.54798 82.969 198.54798 81.51935 197.09833 81.51935 195.31008 81.51935 193.52182 82.969 192.07218 84.75725 192.07218 86.5455 192.07218 87.99515 193.52182 87.99515 195.31008ZM84.75725 195.31008" fill="#2196f3"/>
<path transform="matrix(1.00005,0,0,-1.00005,2.0961533,241.33826)" d="M99.05054 195.31008C99.05054 197.09833 97.60089 198.54798 95.81264 198.54798 94.02438 198.54798 92.57474 197.09833 92.57474 195.31008 92.57474 193.52182 94.02438 192.07218 95.81264 192.07218 97.60089 192.07218 99.05054 193.52182 99.05054 195.31008ZM95.81264 195.31008" fill="#2196f3"/>
<path transform="matrix(1.00005,0,0,-1.00005,2.0961533,241.33826)" d="M110.10594 195.31008C110.10594 197.09833 108.6563 198.54798 106.86804 198.54798 105.07979 198.54798 103.63014 197.09833 103.63014 195.31008 103.63014 193.52182 105.07979 192.07218 106.86804 192.07218 108.6563 192.07218 110.10594 193.52182 110.10594 195.31008ZM106.86804 195.31008" fill="#2196f3"/>
<path transform="matrix(1.00005,0,0,-1.00005,2.0961533,241.33826)" d="M161.69702 195.31008C161.69702 197.09833 160.24738 198.54798 158.45912 198.54798 156.67087 198.54798 155.22122 197.09833 155.22122 195.31008 155.22122 193.52182 156.67087 192.07218 158.45912 192.07218 160.24738 192.07218 161.69702 193.52182 161.69702 195.31008ZM158.45912 195.31008" fill="#2196f3"/>
<path transform="matrix(1.00005,0,0,-1.00005,2.0961533,241.33826)" d="M172.75241 195.31008C172.75241 197.09833 171.30277 198.54798 169.51451 198.54798 167.72626 198.54798 166.27661 197.09833 166.27661 195.31008 166.27661 193.52182 167.72626 192.07218 169.51451 192.07218 171.30277 192.07218 172.75241 193.52182 172.75241 195.31008ZM169.51451 195.31008" fill="#2196f3"/>
<path transform="matrix(1.00005,0,0,-1.00005,2.0961533,241.33826)" d="M183.80783 195.31008C183.80783 197.09833 182.35819 198.54798 180.56993 198.54798 178.78168 198.54798 177.33203 197.09833 177.33203 195.31008 177.33203 193.52182 178.78168 192.07218 180.56993 192.07218 182.35819 192.07218 183.80783 193.52182 183.80783 195.31008ZM180.56993 195.31008" fill="#2196f3"/>
<path transform="matrix(1.00005,0,0,-1.00005,2.0961533,241.33826)" d="M161.69702 206.36545C161.69702 208.1537 160.24738 209.60335 158.45912 209.60335 156.67087 209.60335 155.22122 208.1537 155.22122 206.36545 155.22122 204.5772 156.67087 203.12755 158.45912 203.12755 160.24738 203.12755 161.69702 204.5772 161.69702 206.36545ZM158.45912 206.36545" fill="#2196f3"/>
<path transform="matrix(1.00005,0,0,-1.00005,2.0961533,241.33826)" d="M172.75241 206.36545C172.75241 208.1537 171.30277 209.60335 169.51451 209.60335 167.72626 209.60335 166.27661 208.1537 166.27661 206.36545 166.27661 204.5772 167.72626 203.12755 169.51451 203.12755 171.30277 203.12755 172.75241 204.5772 172.75241 206.36545ZM169.51451 206.36545" fill="#2196f3"/>
<path transform="matrix(1.00005,0,0,-1.00005,2.0961533,241.33826)" d="M183.80783 206.36545C183.80783 208.1537 182.35819 209.60335 180.56993 209.60335 178.78168 209.60335 177.33203 208.1537 177.33203 206.36545 177.33203 204.5772 178.78168 203.12755 180.56993 203.12755 182.35819 203.12755 183.80783 204.5772 183.80783 206.36545ZM180.56993 206.36545" fill="#2196f3"/>
<path transform="matrix(1.00005,0,0,-1.00005,2.0961533,241.33826)" d="M235.39891 195.31008C235.39891 197.09833 233.94927 198.54798 232.16101 198.54798 230.37274 198.54798 228.92311 197.09833 228.92311 195.31008 228.92311 193.52182 230.37274 192.07218 232.16101 192.07218 233.94927 192.07218 235.39891 193.52182 235.39891 195.31008ZM232.16101 195.31008" fill="#2196f3"/>
<path transform="matrix(1.00005,0,0,-1.00005,2.0961533,241.33826)" d="M246.4543 195.31008C246.4543 197.09833 245.00466 198.54798 243.2164 198.54798 241.42815 198.54798 239.9785 197.09833 239.9785 195.31008 239.9785 193.52182 241.42815 192.07218 243.2164 192.07218 245.00466 192.07218 246.4543 193.52182 246.4543 195.31008ZM243.2164 195.31008" fill="#2196f3"/>
<path transform="matrix(1.00005,0,0,-1.00005,2.0961533,241.33826)" d="M257.5097 195.31008C257.5097 197.09833 256.06004 198.54798 254.27179 198.54798 252.48354 198.54798 251.03389 197.09833 251.03389 195.31008 251.03389 193.52182 252.48354 192.07218 254.27179 192.07218 256.06004 192.07218 257.5097 193.52182 257.5097 195.31008ZM254.27179 195.31008" fill="#2196f3"/>
<path transform="matrix(1.00005,0,0,-1.00005,2.0961533,241.33826)" d="M268.5651 195.31008C268.5651 197.09833 267.11546 198.54798 265.3272 198.54798 263.53895 198.54798 262.0893 197.09833 262.0893 195.31008 262.0893 193.52182 263.53895 192.07218 265.3272 192.07218 267.11546 192.07218 268.5651 193.52182 268.5651 195.31008ZM265.3272 195.31008" fill="#2196f3"/>
<path transform="matrix(1.00005,0,0,-1.00005,2.0961533,241.33826)" d="M235.39891 206.36545C235.39891 208.1537 233.94927 209.60335 232.16101 209.60335 230.37274 209.60335 228.92311 208.1537 228.92311 206.36545 228.92311 204.5772 230.37274 203.12755 232.16101 203.12755 233.94927 203.12755 235.39891 204.5772 235.39891 206.36545ZM232.16101 206.36545" fill="#2196f3"/>
<path transform="matrix(1.00005,0,0,-1.00005,2.0961533,241.33826)" d="M246.4543 206.36545C246.4543 208.1537 245.00466 209.60335 243.2164 209.60335 241.42815 209.60335 239.9785 208.1537 239.9785 206.36545 239.9785 204.5772 241.42815 203.12755 243.2164 203.12755 245.00466 203.12755 246.4543 204.5772 246.4543 206.36545ZM243.2164 206.36545" fill="#2196f3"/>
<path transform="matrix(1.00005,0,0,-1.00005,2.0961533,241.33826)" d="M257.5097 206.36545C257.5097 208.1537 256.06004 209.60335 254.27179 209.60335 252.48354 209.60335 251.03389 208.1537 251.03389 206.36545 251.03389 204.5772 252.48354 203.12755 254.27179 203.12755 256.06004 203.12755 257.5097 204.5772 257.5097 206.36545ZM254.27179 206.36545" fill="#2196f3"/>
<path transform="matrix(1.00005,0,0,-1.00005,2.0961533,241.33826)" stroke-width=".3985" stroke-linecap="butt" stroke-dasharray="2.98883,2.98883" stroke-miterlimit="10" stroke-linejoin="miter" fill="none" stroke="#b71c1c" d="M224.79094 7.67041V49.44861C224.79094 51.64955 226.5751 53.43372 228.77605 53.43372H255.8141C258.01506 53.43372 259.79924 51.64955 259.79924 49.44861V22.41055C259.79924 20.20961 261.58338 18.42545 263.78434 18.42545H268.7116C270.91255 18.42545 272.69673 16.64128 272.69673 14.44034V7.67041C272.69673 5.46947 270.91255 3.6853 268.7116 3.6853H228.77605C226.5751 3.6853 224.79094 5.46947 224.79094 7.67041Z"/>
<path transform="matrix(1.00005,0,0,-1.00005,2.0961533,241.33826)" stroke-width=".3985" stroke-linecap="butt" stroke-dasharray="2.98883,2.98883" stroke-miterlimit="10" stroke-linejoin="miter" fill="none" stroke="#b71c1c" d="M224.79094 59.26149V97.35495C224.79094 99.5559 226.5751 101.34006 228.77605 101.34006H268.7116C270.91255 101.34006 272.69673 99.5559 272.69673 97.35495V59.26149C272.69673 57.06055 270.91255 55.27638 268.7116 55.27638H228.77605C226.5751 55.27638 224.79094 57.06055 224.79094 59.26149ZM272.69673 101.34006"/>
<path transform="matrix(1.00005,0,0,-1.00005,2.0961533,241.33826)" stroke-width=".3985" stroke-linecap="butt" stroke-dasharray="2.98883,2.98883" stroke-miterlimit="10" stroke-linejoin="miter" fill="none" stroke="#b71c1c" d="M224.79094 169.81432V207.90776C224.79094 210.1087 226.5751 211.89287 228.77605 211.89287H268.7116C270.91255 211.89287 272.69673 210.1087 272.69673 207.90776V169.81432C272.69673 167.61338 270.91255 165.82921 268.7116 165.82921H228.77605C226.5751 165.82921 224.79094 167.61338 224.79094 169.81432ZM272.69673 211.89287"/>
<path transform="matrix(1.00005,0,0,-1.00005,2.0961533,241.33826)" stroke-width=".3985" stroke-linecap="butt" stroke-dasharray="2.98883,2.98883" stroke-miterlimit="10" stroke-linejoin="miter" fill="none" stroke="#b71c1c" d="M224.79094 118.22322V160.00142C224.79094 162.20236 226.5751 163.98653 228.77605 163.98653H268.7116C270.91255 163.98653 272.69673 162.20236 272.69673 160.00142V144.01877C272.69673 141.81783 270.91255 140.03366 268.7116 140.03366H263.78434C261.58338 140.03366 259.79924 138.2495 259.79924 136.04856V118.22322C259.79924 116.02228 258.01506 114.23811 255.8141 114.23811H228.77605C226.5751 114.23811 224.79094 116.02228 224.79094 118.22322Z"/>
<path transform="matrix(1.00005,0,0,-1.00005,2.0961533,241.33826)" d="M205.91805 47.90631C205.91805 49.69456 204.4684 51.14421 202.68015 51.14421 200.89189 51.14421 199.44225 49.69456 199.44225 47.90631 199.44225 46.11806 200.89189 44.66841 202.68015 44.66841 204.4684 44.66841 205.91805 46.11806 205.91805 47.90631ZM202.68015 47.90631" fill="#b71c1c"/>
<path transform="matrix(1.00005,0,0,-1.00005,2.0961533,241.33826)" stroke-width=".3985" stroke-linecap="butt" stroke-miterlimit="10" stroke-linejoin="miter" fill="none" stroke="#000000" d="M224.79094 47.90631H206.82373"/>
<path transform="matrix(-1.00005,-0,0,1.00005,208.9302,193.42955)" stroke-width=".31879" stroke-linecap="round" stroke-linejoin="round" fill="none" stroke="#000000" d="M-1.19551 1.59401C-1.09587 .99626 0 .09961 .29886 0 0-.09961-1.09587-.99626-1.19551-1.59401"/>
<path transform="matrix(1.00005,0,0,-1.00005,2.0961533,241.33826)" d="M205.91805 84.75725C205.91805 86.5455 204.4684 87.99515 202.68015 87.99515 200.89189 87.99515 199.44225 86.5455 199.44225 84.75725 199.44225 82.969 200.89189 81.51935 202.68015 81.51935 204.4684 81.51935 205.91805 82.969 205.91805 84.75725ZM202.68015 84.75725" fill="#b71c1c"/>
<path transform="matrix(1.00005,0,0,-1.00005,2.0961533,241.33826)" stroke-width=".3985" stroke-linecap="butt" stroke-miterlimit="10" stroke-linejoin="miter" fill="none" stroke="#000000" d="M224.79094 84.75725H206.82373"/>
<path transform="matrix(-1.00005,-0,0,1.00005,208.9302,156.57678)" stroke-width=".31879" stroke-linecap="round" stroke-linejoin="round" fill="none" stroke="#000000" d="M-1.19551 1.59401C-1.09587 .99626 0 .09961 .29886 0 0-.09961-1.09587-.99626-1.19551-1.59401"/>
<path transform="matrix(1.00005,0,0,-1.00005,2.0961533,241.33826)" d="M205.91805 158.45912C205.91805 160.24738 204.4684 161.69702 202.68015 161.69702 200.89189 161.69702 199.44225 160.24738 199.44225 158.45912 199.44225 156.67087 200.89189 155.22122 202.68015 155.22122 204.4684 155.22122 205.91805 156.67087 205.91805 158.45912ZM202.68015 158.45912" fill="#b71c1c"/>
<path transform="matrix(1.00005,0,0,-1.00005,2.0961533,241.33826)" stroke-width=".3985" stroke-linecap="butt" stroke-miterlimit="10" stroke-linejoin="miter" fill="none" stroke="#000000" d="M224.79094 158.45912H206.82373"/>
<path transform="matrix(-1.00005,-0,0,1.00005,208.9302,82.871219)" stroke-width=".31879" stroke-linecap="round" stroke-linejoin="round" fill="none" stroke="#000000" d="M-1.19551 1.59401C-1.09587 .99626 0 .09961 .29886 0 0-.09961-1.09587-.99626-1.19551-1.59401"/>
<path transform="matrix(1.00005,0,0,-1.00005,2.0961533,241.33826)" d="M205.91805 195.31008C205.91805 197.09833 204.4684 198.54798 202.68015 198.54798 200.89189 198.54798 199.44225 197.09833 199.44225 195.31008 199.44225 193.52182 200.89189 192.07218 202.68015 192.07218 204.4684 192.07218 205.91805 193.52182 205.91805 195.31008ZM202.68015 195.31008" fill="#b71c1c"/>
<path transform="matrix(1.00005,0,0,-1.00005,2.0961533,241.33826)" stroke-width=".3985" stroke-linecap="butt" stroke-miterlimit="10" stroke-linejoin="miter" fill="none" stroke="#000000" d="M224.79094 195.31008H206.82373"/>
<path transform="matrix(-1.00005,-0,0,1.00005,208.9302,46.018434)" stroke-width=".31879" stroke-linecap="round" stroke-linejoin="round" fill="none" stroke="#000000" d="M-1.19551 1.59401C-1.09587 .99626 0 .09961 .29886 0 0-.09961-1.09587-.99626-1.19551-1.59401"/>
<path transform="matrix(1.00005,0,0,-1.00005,2.0961533,241.33826)" stroke-width=".79701" stroke-linecap="butt" stroke-miterlimit="10" stroke-linejoin="miter" fill="none" stroke="#000000" d="M228.4757 18.42545 235.84633 25.79552"/>
<path transform="matrix(1.00005,0,0,-1.00005,2.0961533,241.33826)" stroke-width=".79701" stroke-linecap="butt" stroke-miterlimit="10" stroke-linejoin="miter" fill="none" stroke="#000000" d="M239.53108 18.42545 246.90172 25.79552"/>
<path transform="matrix(1.00005,0,0,-1.00005,2.0961533,241.33826)" stroke-width=".79701" stroke-linecap="butt" stroke-miterlimit="10" stroke-linejoin="miter" fill="none" stroke="#000000" d="M250.58647 18.42545 257.95713 25.79552"/>
<path transform="matrix(1.00005,0,0,-1.00005,2.0961533,241.33826)" stroke-width=".79701" stroke-linecap="butt" stroke-miterlimit="10" stroke-linejoin="miter" fill="none" stroke="#000000" d="M228.4757 7.37006 235.84633 14.74013"/>
<path transform="matrix(1.00005,0,0,-1.00005,2.0961533,241.33826)" stroke-width=".79701" stroke-linecap="butt" stroke-miterlimit="10" stroke-linejoin="miter" fill="none" stroke="#000000" d="M239.53108 7.37006 246.90172 14.74013"/>
<path transform="matrix(1.00005,0,0,-1.00005,2.0961533,241.33826)" stroke-width=".79701" stroke-linecap="butt" stroke-miterlimit="10" stroke-linejoin="miter" fill="none" stroke="#000000" d="M250.58647 7.37006 257.95713 14.74013"/>
<path transform="matrix(1.00005,0,0,-1.00005,2.0961533,241.33826)" stroke-width=".79701" stroke-linecap="butt" stroke-miterlimit="10" stroke-linejoin="miter" fill="none" stroke="#000000" d="M228.4757 55.27638 235.84633 62.64647"/>
<path transform="matrix(1.00005,0,0,-1.00005,2.0961533,241.33826)" stroke-width=".79701" stroke-linecap="butt" stroke-miterlimit="10" stroke-linejoin="miter" fill="none" stroke="#000000" d="M239.53108 55.27638 246.90172 62.64647"/>
<path transform="matrix(1.00005,0,0,-1.00005,2.0961533,241.33826)" stroke-width=".79701" stroke-linecap="butt" stroke-miterlimit="10" stroke-linejoin="miter" fill="none" stroke="#000000" d="M250.58647 55.27638 257.95713 62.64647"/>
<path transform="matrix(1.00005,0,0,-1.00005,2.0961533,241.33826)" stroke-width=".79701" stroke-linecap="butt" stroke-miterlimit="10" stroke-linejoin="miter" fill="none" stroke="#000000" d="M228.4757 44.221 235.84633 51.59106"/>
<path transform="matrix(1.00005,0,0,-1.00005,2.0961533,241.33826)" stroke-width=".79701" stroke-linecap="butt" stroke-miterlimit="10" stroke-linejoin="miter" fill="none" stroke="#000000" d="M239.53108 44.221 246.90172 51.59106"/>
<path transform="matrix(1.00005,0,0,-1.00005,2.0961533,241.33826)" stroke-width=".79701" stroke-linecap="butt" stroke-miterlimit="10" stroke-linejoin="miter" fill="none" stroke="#000000" d="M250.58647 44.221 257.95713 51.59106"/>
<path transform="matrix(1.00005,0,0,-1.00005,2.0961533,241.33826)" stroke-width=".79701" stroke-linecap="butt" stroke-miterlimit="10" stroke-linejoin="miter" fill="none" stroke="#000000" d="M228.4757 92.12732 235.84633 99.49739"/>
<path transform="matrix(1.00005,0,0,-1.00005,2.0961533,241.33826)" stroke-width=".79701" stroke-linecap="butt" stroke-miterlimit="10" stroke-linejoin="miter" fill="none" stroke="#000000" d="M239.53108 92.12732 246.90172 99.49739"/>
<path transform="matrix(1.00005,0,0,-1.00005,2.0961533,241.33826)" stroke-width=".79701" stroke-linecap="butt" stroke-miterlimit="10" stroke-linejoin="miter" fill="none" stroke="#000000" d="M250.58647 92.12732 257.95713 99.49739"/>
<path transform="matrix(1.00005,0,0,-1.00005,2.0961533,241.33826)" stroke-width=".79701" stroke-linecap="butt" stroke-miterlimit="10" stroke-linejoin="miter" fill="none" stroke="#000000" d="M228.4757 81.07193 235.84633 88.44202"/>
<path transform="matrix(1.00005,0,0,-1.00005,2.0961533,241.33826)" stroke-width=".79701" stroke-linecap="butt" stroke-miterlimit="10" stroke-linejoin="miter" fill="none" stroke="#000000" d="M239.53108 81.07193 246.90172 88.44202"/>
<path transform="matrix(1.00005,0,0,-1.00005,2.0961533,241.33826)" stroke-width=".79701" stroke-linecap="butt" stroke-miterlimit="10" stroke-linejoin="miter" fill="none" stroke="#000000" d="M250.58647 81.07193 257.95713 88.44202"/>
<path transform="matrix(1.00005,0,0,-1.00005,2.0961533,241.33826)" stroke-width=".79701" stroke-linecap="butt" stroke-miterlimit="10" stroke-linejoin="miter" fill="none" stroke="#000000" d="M228.4757 128.97826 235.84633 136.34833"/>
<path transform="matrix(1.00005,0,0,-1.00005,2.0961533,241.33826)" stroke-width=".79701" stroke-linecap="butt" stroke-miterlimit="10" stroke-linejoin="miter" fill="none" stroke="#000000" d="M239.53108 128.97826 246.90172 136.34833"/>
<path transform="matrix(1.00005,0,0,-1.00005,2.0961533,241.33826)" stroke-width=".79701" stroke-linecap="butt" stroke-miterlimit="10" stroke-linejoin="miter" fill="none" stroke="#000000" d="M250.58647 128.97826 257.95713 136.34833"/>
<path transform="matrix(1.00005,0,0,-1.00005,2.0961533,241.33826)" stroke-width=".79701" stroke-linecap="butt" stroke-miterlimit="10" stroke-linejoin="miter" fill="none" stroke="#000000" d="M228.4757 117.92288 235.84633 125.29295"/>
<path transform="matrix(1.00005,0,0,-1.00005,2.0961533,241.33826)" stroke-width=".79701" stroke-linecap="butt" stroke-miterlimit="10" stroke-linejoin="miter" fill="none" stroke="#000000" d="M239.53108 117.92288 246.90172 125.29295"/>
<path transform="matrix(1.00005,0,0,-1.00005,2.0961533,241.33826)" stroke-width=".79701" stroke-linecap="butt" stroke-miterlimit="10" stroke-linejoin="miter" fill="none" stroke="#000000" d="M250.58647 117.92288 257.95713 125.29295"/>
<path transform="matrix(1.00005,0,0,-1.00005,2.0961533,241.33826)" stroke-width=".79701" stroke-linecap="butt" stroke-miterlimit="10" stroke-linejoin="miter" fill="none" stroke="#000000" d="M228.4757 165.82921 235.84633 173.19928"/>
<path transform="matrix(1.00005,0,0,-1.00005,2.0961533,241.33826)" stroke-width=".79701" stroke-linecap="butt" stroke-miterlimit="10" stroke-linejoin="miter" fill="none" stroke="#000000" d="M239.53108 165.82921 246.90172 173.19928"/>
<path transform="matrix(1.00005,0,0,-1.00005,2.0961533,241.33826)" stroke-width=".79701" stroke-linecap="butt" stroke-miterlimit="10" stroke-linejoin="miter" fill="none" stroke="#000000" d="M250.58647 165.82921 257.95713 173.19928"/>
<path transform="matrix(1.00005,0,0,-1.00005,2.0961533,241.33826)" stroke-width=".79701" stroke-linecap="butt" stroke-miterlimit="10" stroke-linejoin="miter" fill="none" stroke="#000000" d="M228.4757 154.77382 235.84633 162.14389"/>
<path transform="matrix(1.00005,0,0,-1.00005,2.0961533,241.33826)" stroke-width=".79701" stroke-linecap="butt" stroke-miterlimit="10" stroke-linejoin="miter" fill="none" stroke="#000000" d="M239.53108 154.77382 246.90172 162.14389"/>
<path transform="matrix(1.00005,0,0,-1.00005,2.0961533,241.33826)" stroke-width=".79701" stroke-linecap="butt" stroke-miterlimit="10" stroke-linejoin="miter" fill="none" stroke="#000000" d="M250.58647 154.77382 257.95713 162.14389"/>
<path transform="matrix(1.00005,0,0,-1.00005,2.0961533,241.33826)" stroke-width=".79701" stroke-linecap="butt" stroke-miterlimit="10" stroke-linejoin="miter" fill="none" stroke="#000000" d="M228.4757 202.68015 235.84633 210.05022"/>
<path transform="matrix(1.00005,0,0,-1.00005,2.0961533,241.33826)" stroke-width=".79701" stroke-linecap="butt" stroke-miterlimit="10" stroke-linejoin="miter" fill="none" stroke="#000000" d="M239.53108 202.68015 246.90172 210.05022"/>
<path transform="matrix(1.00005,0,0,-1.00005,2.0961533,241.33826)" stroke-width=".79701" stroke-linecap="butt" stroke-miterlimit="10" stroke-linejoin="miter" fill="none" stroke="#000000" d="M250.58647 202.68015 257.95713 210.05022"/>
<path transform="matrix(1.00005,0,0,-1.00005,2.0961533,241.33826)" stroke-width=".79701" stroke-linecap="butt" stroke-miterlimit="10" stroke-linejoin="miter" fill="none" stroke="#000000" d="M228.4757 191.62476 235.84633 198.99483"/>
<path transform="matrix(1.00005,0,0,-1.00005,2.0961533,241.33826)" stroke-width=".79701" stroke-linecap="butt" stroke-miterlimit="10" stroke-linejoin="miter" fill="none" stroke="#000000" d="M239.53108 191.62476 246.90172 198.99483"/>
<path transform="matrix(1.00005,0,0,-1.00005,2.0961533,241.33826)" stroke-width=".79701" stroke-linecap="butt" stroke-miterlimit="10" stroke-linejoin="miter" fill="none" stroke="#000000" d="M250.58647 191.62476 257.95713 198.99483"/>
<path transform="matrix(1.00005,0,0,-1.00005,2.0961533,241.33826)" stroke-width=".79701" stroke-linecap="butt" stroke-miterlimit="10" stroke-linejoin="miter" fill="none" stroke="#000000" d="M261.64189 7.37006 269.0125 14.74013"/>
<path transform="matrix(1.00005,0,0,-1.00005,2.0961533,241.33826)" stroke-width=".79701" stroke-linecap="butt" stroke-miterlimit="10" stroke-linejoin="miter" fill="none" stroke="#000000" d="M261.64189 81.07193 269.0125 88.44202"/>
<path transform="matrix(1.00005,0,0,-1.00005,2.0961533,241.33826)" stroke-width=".79701" stroke-linecap="butt" stroke-miterlimit="10" stroke-linejoin="miter" fill="none" stroke="#000000" d="M261.64189 154.77382 269.0125 162.14389"/>
<path transform="matrix(1.00005,0,0,-1.00005,2.0961533,241.33826)" stroke-width=".79701" stroke-linecap="butt" stroke-miterlimit="10" stroke-linejoin="miter" fill="none" stroke="#000000" d="M261.64189 191.62476 269.0125 198.99483"/>
<path transform="matrix(1.00005,0,0,-1.00005,2.0961533,241.33826)" stroke-width=".3985" stroke-linecap="butt" stroke-dasharray="2.98883,2.98883" stroke-miterlimit="10" stroke-linejoin="miter" fill="none" stroke="#b71c1c" d="M151.08905 169.81432V207.90776C151.08905 210.1087 152.87322 211.89287 155.07416 211.89287H202.38034C204.58129 211.89287 206.36545 210.1087 206.36545 207.90776V169.81432C206.36545 167.61338 204.58129 165.82921 202.38034 165.82921H155.07416C152.87322 165.82921 151.08905 167.61338 151.08905 169.81432ZM206.36545 211.89287"/>
<path transform="matrix(1.00005,0,0,-1.00005,2.0961533,241.33826)" stroke-width=".3985" stroke-linecap="butt" stroke-dasharray="2.98883,2.98883" stroke-miterlimit="10" stroke-linejoin="miter" fill="none" stroke="#b71c1c" d="M151.08905 118.22322V160.00142C151.08905 162.20236 152.87322 163.98653 155.07416 163.98653H202.38034C204.58129 163.98653 206.36545 162.20236 206.36545 160.00142V118.22322C206.36545 116.02228 204.58129 114.23811 202.38034 114.23811H155.07416C152.87322 114.23811 151.08905 116.02228 151.08905 118.22322ZM206.36545 163.98653"/>
<path transform="matrix(1.00005,0,0,-1.00005,2.0961533,241.33826)" stroke-width=".3985" stroke-linecap="butt" stroke-dasharray="2.98883,2.98883" stroke-miterlimit="10" stroke-linejoin="miter" fill="none" stroke="#b71c1c" d="M151.08905 59.26149V97.35495C151.08905 99.5559 152.87322 101.34006 155.07416 101.34006H202.38034C204.58129 101.34006 206.36545 99.5559 206.36545 97.35495V59.26149C206.36545 57.06055 204.58129 55.27638 202.38034 55.27638H155.07416C152.87322 55.27638 151.08905 57.06055 151.08905 59.26149ZM206.36545 101.34006"/>
<path transform="matrix(1.00005,0,0,-1.00005,2.0961533,241.33826)" stroke-width=".3985" stroke-linecap="butt" stroke-dasharray="2.98883,2.98883" stroke-miterlimit="10" stroke-linejoin="miter" fill="none" stroke="#b71c1c" d="M151.08905 7.67041V49.44861C151.08905 51.64955 152.87322 53.43372 155.07416 53.43372H202.38034C204.58129 53.43372 206.36545 51.64955 206.36545 49.44861V7.67041C206.36545 5.46947 204.58129 3.6853 202.38034 3.6853H155.07416C152.87322 3.6853 151.08905 5.46947 151.08905 7.67041ZM206.36545 53.43372"/>
<path transform="matrix(1.00005,0,0,-1.00005,2.0961533,241.33826)" d="M132.21616 47.90631C132.21616 49.69456 130.76651 51.14421 128.97826 51.14421 127.19 51.14421 125.74036 49.69456 125.74036 47.90631 125.74036 46.11806 127.19 44.66841 128.97826 44.66841 130.76651 44.66841 132.21616 46.11806 132.21616 47.90631ZM128.97826 47.90631" fill="#b71c1c"/>
<path transform="matrix(1.00005,0,0,-1.00005,2.0961533,241.33826)" stroke-width=".3985" stroke-linecap="butt" stroke-miterlimit="10" stroke-linejoin="miter" fill="none" stroke="#000000" d="M151.08905 47.90631H133.12184"/>
<path transform="matrix(-1.00005,-0,0,1.00005,135.22464,193.42955)" stroke-width=".31879" stroke-linecap="round" stroke-linejoin="round" fill="none" stroke="#000000" d="M-1.19551 1.59401C-1.09587 .99626 0 .09961 .29886 0 0-.09961-1.09587-.99626-1.19551-1.59401"/>
<path transform="matrix(1.00005,0,0,-1.00005,2.0961533,241.33826)" d="M132.21616 84.75725C132.21616 86.5455 130.76651 87.99515 128.97826 87.99515 127.19 87.99515 125.74036 86.5455 125.74036 84.75725 125.74036 82.969 127.19 81.51935 128.97826 81.51935 130.76651 81.51935 132.21616 82.969 132.21616 84.75725ZM128.97826 84.75725" fill="#b71c1c"/>
<path transform="matrix(1.00005,0,0,-1.00005,2.0961533,241.33826)" stroke-width=".3985" stroke-linecap="butt" stroke-miterlimit="10" stroke-linejoin="miter" fill="none" stroke="#000000" d="M151.08905 84.75725H133.12184"/>
<path transform="matrix(-1.00005,-0,0,1.00005,135.22464,156.57678)" stroke-width=".31879" stroke-linecap="round" stroke-linejoin="round" fill="none" stroke="#000000" d="M-1.19551 1.59401C-1.09587 .99626 0 .09961 .29886 0 0-.09961-1.09587-.99626-1.19551-1.59401"/>
<path transform="matrix(1.00005,0,0,-1.00005,2.0961533,241.33826)" d="M132.21616 158.45912C132.21616 160.24738 130.76651 161.69702 128.97826 161.69702 127.19 161.69702 125.74036 160.24738 125.74036 158.45912 125.74036 156.67087 127.19 155.22122 128.97826 155.22122 130.76651 155.22122 132.21616 156.67087 132.21616 158.45912ZM128.97826 158.45912" fill="#b71c1c"/>
<path transform="matrix(1.00005,0,0,-1.00005,2.0961533,241.33826)" stroke-width=".3985" stroke-linecap="butt" stroke-miterlimit="10" stroke-linejoin="miter" fill="none" stroke="#000000" d="M151.08905 158.45912H133.12184"/>
<path transform="matrix(-1.00005,-0,0,1.00005,135.22464,82.871219)" stroke-width=".31879" stroke-linecap="round" stroke-linejoin="round" fill="none" stroke="#000000" d="M-1.19551 1.59401C-1.09587 .99626 0 .09961 .29886 0 0-.09961-1.09587-.99626-1.19551-1.59401"/>
<path transform="matrix(1.00005,0,0,-1.00005,2.0961533,241.33826)" d="M132.21616 195.31008C132.21616 197.09833 130.76651 198.54798 128.97826 198.54798 127.19 198.54798 125.74036 197.09833 125.74036 195.31008 125.74036 193.52182 127.19 192.07218 128.97826 192.07218 130.76651 192.07218 132.21616 193.52182 132.21616 195.31008ZM128.97826 195.31008" fill="#b71c1c"/>
<path transform="matrix(1.00005,0,0,-1.00005,2.0961533,241.33826)" stroke-width=".3985" stroke-linecap="butt" stroke-miterlimit="10" stroke-linejoin="miter" fill="none" stroke="#000000" d="M151.08905 195.31008H133.12184"/>
<path transform="matrix(-1.00005,-0,0,1.00005,135.22464,46.018434)" stroke-width=".31879" stroke-linecap="round" stroke-linejoin="round" fill="none" stroke="#000000" d="M-1.19551 1.59401C-1.09587 .99626 0 .09961 .29886 0 0-.09961-1.09587-.99626-1.19551-1.59401"/>
<path transform="matrix(1.00005,0,0,-1.00005,2.0961533,241.33826)" stroke-width=".79701" stroke-linecap="butt" stroke-miterlimit="10" stroke-linejoin="miter" fill="none" stroke="#000000" d="M154.77382 18.42545 162.14444 25.79552"/>
<path transform="matrix(1.00005,0,0,-1.00005,2.0961533,241.33826)" stroke-width=".79701" stroke-linecap="butt" stroke-miterlimit="10" stroke-linejoin="miter" fill="none" stroke="#000000" d="M165.82921 18.42545 173.19985 25.79552"/>
<path transform="matrix(1.00005,0,0,-1.00005,2.0961533,241.33826)" stroke-width=".79701" stroke-linecap="butt" stroke-miterlimit="10" stroke-linejoin="miter" fill="none" stroke="#000000" d="M176.88459 18.42545 184.25524 25.79552"/>
<path transform="matrix(1.00005,0,0,-1.00005,2.0961533,241.33826)" stroke-width=".79701" stroke-linecap="butt" stroke-miterlimit="10" stroke-linejoin="miter" fill="none" stroke="#000000" d="M154.77382 7.37006 162.14444 14.74013"/>
<path transform="matrix(1.00005,0,0,-1.00005,2.0961533,241.33826)" stroke-width=".79701" stroke-linecap="butt" stroke-miterlimit="10" stroke-linejoin="miter" fill="none" stroke="#000000" d="M165.82921 7.37006 173.19985 14.74013"/>
<path transform="matrix(1.00005,0,0,-1.00005,2.0961533,241.33826)" stroke-width=".79701" stroke-linecap="butt" stroke-miterlimit="10" stroke-linejoin="miter" fill="none" stroke="#000000" d="M176.88459 7.37006 184.25524 14.74013"/>
<path transform="matrix(1.00005,0,0,-1.00005,2.0961533,241.33826)" stroke-width=".79701" stroke-linecap="butt" stroke-miterlimit="10" stroke-linejoin="miter" fill="none" stroke="#000000" d="M154.77382 55.27638 162.14444 62.64647"/>
<path transform="matrix(1.00005,0,0,-1.00005,2.0961533,241.33826)" stroke-width=".79701" stroke-linecap="butt" stroke-miterlimit="10" stroke-linejoin="miter" fill="none" stroke="#000000" d="M165.82921 55.27638 173.19985 62.64647"/>
<path transform="matrix(1.00005,0,0,-1.00005,2.0961533,241.33826)" stroke-width=".79701" stroke-linecap="butt" stroke-miterlimit="10" stroke-linejoin="miter" fill="none" stroke="#000000" d="M176.88459 55.27638 184.25524 62.64647"/>
<path transform="matrix(1.00005,0,0,-1.00005,2.0961533,241.33826)" stroke-width=".79701" stroke-linecap="butt" stroke-miterlimit="10" stroke-linejoin="miter" fill="none" stroke="#000000" d="M154.77382 44.221 162.14444 51.59106"/>
<path transform="matrix(1.00005,0,0,-1.00005,2.0961533,241.33826)" stroke-width=".79701" stroke-linecap="butt" stroke-miterlimit="10" stroke-linejoin="miter" fill="none" stroke="#000000" d="M165.82921 44.221 173.19985 51.59106"/>
<path transform="matrix(1.00005,0,0,-1.00005,2.0961533,241.33826)" stroke-width=".79701" stroke-linecap="butt" stroke-miterlimit="10" stroke-linejoin="miter" fill="none" stroke="#000000" d="M176.88459 44.221 184.25524 51.59106"/>
<path transform="matrix(1.00005,0,0,-1.00005,2.0961533,241.33826)" stroke-width=".79701" stroke-linecap="butt" stroke-miterlimit="10" stroke-linejoin="miter" fill="none" stroke="#000000" d="M154.77382 92.12732 162.14444 99.49739"/>
<path transform="matrix(1.00005,0,0,-1.00005,2.0961533,241.33826)" stroke-width=".79701" stroke-linecap="butt" stroke-miterlimit="10" stroke-linejoin="miter" fill="none" stroke="#000000" d="M165.82921 92.12732 173.19985 99.49739"/>
<path transform="matrix(1.00005,0,0,-1.00005,2.0961533,241.33826)" stroke-width=".79701" stroke-linecap="butt" stroke-miterlimit="10" stroke-linejoin="miter" fill="none" stroke="#000000" d="M176.88459 92.12732 184.25524 99.49739"/>
<path transform="matrix(1.00005,0,0,-1.00005,2.0961533,241.33826)" stroke-width=".79701" stroke-linecap="butt" stroke-miterlimit="10" stroke-linejoin="miter" fill="none" stroke="#000000" d="M154.77382 81.07193 162.14444 88.44202"/>
<path transform="matrix(1.00005,0,0,-1.00005,2.0961533,241.33826)" stroke-width=".79701" stroke-linecap="butt" stroke-miterlimit="10" stroke-linejoin="miter" fill="none" stroke="#000000" d="M165.82921 81.07193 173.19985 88.44202"/>
<path transform="matrix(1.00005,0,0,-1.00005,2.0961533,241.33826)" stroke-width=".79701" stroke-linecap="butt" stroke-miterlimit="10" stroke-linejoin="miter" fill="none" stroke="#000000" d="M176.88459 81.07193 184.25524 88.44202"/>
<path transform="matrix(1.00005,0,0,-1.00005,2.0961533,241.33826)" stroke-width=".79701" stroke-linecap="butt" stroke-miterlimit="10" stroke-linejoin="miter" fill="none" stroke="#000000" d="M154.77382 128.97826 162.14444 136.34833"/>
<path transform="matrix(1.00005,0,0,-1.00005,2.0961533,241.33826)" stroke-width=".79701" stroke-linecap="butt" stroke-miterlimit="10" stroke-linejoin="miter" fill="none" stroke="#000000" d="M165.82921 128.97826 173.19985 136.34833"/>
<path transform="matrix(1.00005,0,0,-1.00005,2.0961533,241.33826)" stroke-width=".79701" stroke-linecap="butt" stroke-miterlimit="10" stroke-linejoin="miter" fill="none" stroke="#000000" d="M176.88459 128.97826 184.25524 136.34833"/>
<path transform="matrix(1.00005,0,0,-1.00005,2.0961533,241.33826)" stroke-width=".79701" stroke-linecap="butt" stroke-miterlimit="10" stroke-linejoin="miter" fill="none" stroke="#000000" d="M154.77382 117.92288 162.14444 125.29295"/>
<path transform="matrix(1.00005,0,0,-1.00005,2.0961533,241.33826)" stroke-width=".79701" stroke-linecap="butt" stroke-miterlimit="10" stroke-linejoin="miter" fill="none" stroke="#000000" d="M165.82921 117.92288 173.19985 125.29295"/>
<path transform="matrix(1.00005,0,0,-1.00005,2.0961533,241.33826)" stroke-width=".79701" stroke-linecap="butt" stroke-miterlimit="10" stroke-linejoin="miter" fill="none" stroke="#000000" d="M176.88459 117.92288 184.25524 125.29295"/>
<path transform="matrix(1.00005,0,0,-1.00005,2.0961533,241.33826)" stroke-width=".79701" stroke-linecap="butt" stroke-miterlimit="10" stroke-linejoin="miter" fill="none" stroke="#000000" d="M154.77382 165.82921 162.14444 173.19928"/>
<path transform="matrix(1.00005,0,0,-1.00005,2.0961533,241.33826)" stroke-width=".79701" stroke-linecap="butt" stroke-miterlimit="10" stroke-linejoin="miter" fill="none" stroke="#000000" d="M165.82921 165.82921 173.19985 173.19928"/>
<path transform="matrix(1.00005,0,0,-1.00005,2.0961533,241.33826)" stroke-width=".79701" stroke-linecap="butt" stroke-miterlimit="10" stroke-linejoin="miter" fill="none" stroke="#000000" d="M176.88459 165.82921 184.25524 173.19928"/>
<path transform="matrix(1.00005,0,0,-1.00005,2.0961533,241.33826)" stroke-width=".79701" stroke-linecap="butt" stroke-miterlimit="10" stroke-linejoin="miter" fill="none" stroke="#000000" d="M154.77382 154.77382 162.14444 162.14389"/>
<path transform="matrix(1.00005,0,0,-1.00005,2.0961533,241.33826)" stroke-width=".79701" stroke-linecap="butt" stroke-miterlimit="10" stroke-linejoin="miter" fill="none" stroke="#000000" d="M165.82921 154.77382 173.19985 162.14389"/>
<path transform="matrix(1.00005,0,0,-1.00005,2.0961533,241.33826)" stroke-width=".79701" stroke-linecap="butt" stroke-miterlimit="10" stroke-linejoin="miter" fill="none" stroke="#000000" d="M176.88459 154.77382 184.25524 162.14389"/>
<path transform="matrix(1.00005,0,0,-1.00005,2.0961533,241.33826)" stroke-width=".79701" stroke-linecap="butt" stroke-miterlimit="10" stroke-linejoin="miter" fill="none" stroke="#000000" d="M154.77382 202.68015 162.14444 210.05022"/>
<path transform="matrix(1.00005,0,0,-1.00005,2.0961533,241.33826)" stroke-width=".79701" stroke-linecap="butt" stroke-miterlimit="10" stroke-linejoin="miter" fill="none" stroke="#000000" d="M165.82921 202.68015 173.19985 210.05022"/>
<path transform="matrix(1.00005,0,0,-1.00005,2.0961533,241.33826)" stroke-width=".79701" stroke-linecap="butt" stroke-miterlimit="10" stroke-linejoin="miter" fill="none" stroke="#000000" d="M176.88459 202.68015 184.25524 210.05022"/>
<path transform="matrix(1.00005,0,0,-1.00005,2.0961533,241.33826)" stroke-width=".79701" stroke-linecap="butt" stroke-miterlimit="10" stroke-linejoin="miter" fill="none" stroke="#000000" d="M154.77382 191.62476 162.14444 198.99483"/>
<path transform="matrix(1.00005,0,0,-1.00005,2.0961533,241.33826)" stroke-width=".79701" stroke-linecap="butt" stroke-miterlimit="10" stroke-linejoin="miter" fill="none" stroke="#000000" d="M165.82921 191.62476 173.19985 198.99483"/>
<path transform="matrix(1.00005,0,0,-1.00005,2.0961533,241.33826)" stroke-width=".79701" stroke-linecap="butt" stroke-miterlimit="10" stroke-linejoin="miter" fill="none" stroke="#000000" d="M176.88459 191.62476 184.25524 198.99483"/>
<path transform="matrix(1.00005,0,0,-1.00005,2.0961533,241.33826)" stroke-width=".79701" stroke-linecap="butt" stroke-miterlimit="10" stroke-linejoin="miter" fill="none" stroke="#000000" d="M198.99538 44.221 206.36603 51.59106"/>
<path transform="matrix(1.00005,0,0,-1.00005,2.0961533,241.33826)" stroke-width=".79701" stroke-linecap="butt" stroke-miterlimit="10" stroke-linejoin="miter" fill="none" stroke="#000000" d="M198.99538 81.07193 206.36603 88.44202"/>
<path transform="matrix(1.00005,0,0,-1.00005,2.0961533,241.33826)" stroke-width=".79701" stroke-linecap="butt" stroke-miterlimit="10" stroke-linejoin="miter" fill="none" stroke="#000000" d="M198.99538 154.77382 206.36603 162.14389"/>
<path transform="matrix(1.00005,0,0,-1.00005,2.0961533,241.33826)" stroke-width=".79701" stroke-linecap="butt" stroke-miterlimit="10" stroke-linejoin="miter" fill="none" stroke="#000000" d="M198.99538 191.62476 206.36603 198.99483"/>
</svg>
