<svg xmlns="http://www.w3.org/2000/svg" xmlns:xlink="http://www.w3.org/1999/xlink" xmlns:inkscape="http://www.inkscape.org/namespaces/inkscape" version="1.1" width="309" height="53" viewBox="0 0 309 53">
<path transform="matrix(1.00006,0,0,-1,13.062637,41.686)" stroke-width=".3985" stroke-linecap="butt" stroke-miterlimit="10" stroke-linejoin="miter" fill="none" stroke="#2e7d32" d="M0 0"/>
<path transform="matrix(1.00006,0,0,-1,13.062637,41.686)" d="M0 11.73997-2.76021 3.79915-11.16548 3.62788-4.46619-1.45114-6.90056-9.49788 0-4.69598 6.90056-9.49788 4.46619-1.45114 11.16548 3.62788 2.76021 3.79915Z" fill="#2e7d32"/>
<path transform="matrix(1.00006,0,0,-1,13.062637,41.686)" stroke-width=".3985" stroke-linecap="butt" stroke-miterlimit="10" stroke-linejoin="miter" fill="none" stroke="#2e7d32" d="M28.3468 28.3468"/>
<path transform="matrix(1.00006,0,0,-1,13.062637,41.686)" d="M28.3468 40.08679 25.58658 32.14597 17.18132 31.9747 23.88062 26.89565 21.44623 18.8489 28.3468 23.6508 35.24738 18.8489 32.81299 26.89565 39.51228 31.9747 31.10703 32.14597Z" fill="#2e7d32"/>
<path transform="matrix(1.00006,0,0,-1,13.062637,41.686)" stroke-width=".3985" stroke-linecap="butt" stroke-miterlimit="10" stroke-linejoin="miter" fill="none" stroke="#2e7d32" d="M56.69362 0"/>
<path transform="matrix(1.00006,0,0,-1,13.062637,41.686)" d="M56.69362 11.73997 53.9334 3.79915 45.52812 3.62788 52.22742-1.45114 49.79305-9.49788 56.69362-4.69598 63.5942-9.49788 61.1598-1.45114 67.8591 3.62788 59.45384 3.79915Z" fill="#2e7d32"/>
<path transform="matrix(1.00006,0,0,-1,13.062637,41.686)" stroke-width=".3985" stroke-linecap="butt" stroke-miterlimit="10" stroke-linejoin="miter" fill="none" stroke="#2e7d32" d="M141.73404 28.3468"/>
<path transform="matrix(1.00006,0,0,-1,13.062637,41.686)" d="M141.73404 40.08679 138.97382 32.14597 130.56856 31.9747 137.26786 26.89565 134.83347 18.8489 141.73404 23.6508 148.63462 18.8489 146.20023 26.89565 152.89954 31.9747 144.49427 32.14597Z" fill="#2e7d32"/>
<path transform="matrix(1.00006,0,0,-1,13.062637,41.686)" stroke-width=".3985" stroke-linecap="butt" stroke-miterlimit="10" stroke-linejoin="miter" fill="none" stroke="#2e7d32" d="M170.08086 0"/>
<path transform="matrix(1.00006,0,0,-1,13.062637,41.686)" d="M170.08086 11.73997 167.32064 3.79915 158.91536 3.62788 165.61467-1.45114 163.18029-9.49788 170.08086-4.69598 176.98143-9.49788 174.54705-1.45114 181.24634 3.62788 172.84108 3.79915Z" fill="#2e7d32"/>
<path transform="matrix(1.00006,0,0,-1,13.062637,41.686)" stroke-width=".3985" stroke-linecap="butt" stroke-miterlimit="10" stroke-linejoin="miter" fill="none" stroke="#2e7d32" d="M198.42766 28.3468"/>
<path transform="matrix(1.00006,0,0,-1,13.062637,41.686)" d="M198.42766 40.08679 195.66744 32.14597 187.26218 31.9747 193.96147 26.89565 191.52709 18.8489 198.42766 23.6508 205.32823 18.8489 202.89385 26.89565 209.59316 31.9747 201.18788 32.14597Z" fill="#2e7d32"/>
<path transform="matrix(1.00006,0,0,-1,13.062637,41.686)" stroke-width=".3985" stroke-linecap="butt" stroke-miterlimit="10" stroke-linejoin="miter" fill="none" stroke="#2e7d32" d="M226.77448 0"/>
<path transform="matrix(1.00006,0,0,-1,13.062637,41.686)" d="M226.77448 11.73997 224.01425 3.79915 215.60898 3.62788 222.30829-1.45114 219.8739-9.49788 226.77448-4.69598 233.67505-9.49788 231.24066-1.45114 237.93996 3.62788 229.5347 3.79915Z" fill="#2e7d32"/>
<path transform="matrix(1.00006,0,0,-1,13.062637,41.686)" stroke-width=".3985" stroke-linecap="butt" stroke-miterlimit="10" stroke-linejoin="miter" fill="none" stroke="#2e7d32" d="M255.12128 28.3468"/>
<path transform="matrix(1.00006,0,0,-1,13.062637,41.686)" d="M255.12128 40.08679 252.36106 32.14597 243.9558 31.9747 250.65509 26.89565 248.2207 18.8489 255.12128 23.6508 262.02186 18.8489 259.58747 26.89565 266.28678 31.9747 257.8815 32.14597Z" fill="#2e7d32"/>
<path transform="matrix(1.00006,0,0,-1,13.062637,41.686)" stroke-width=".3985" stroke-linecap="butt" stroke-miterlimit="10" stroke-linejoin="miter" fill="none" stroke="#2e7d32" d="M283.4681 0"/>
<path transform="matrix(1.00006,0,0,-1,13.062637,41.686)" d="M283.4681 11.73997 280.70787 3.79915 272.3026 3.62788 279.0019-1.45114 276.5675-9.49788 283.4681-4.69598 290.36869-9.49788 287.93428-1.45114 294.63359 3.62788 286.22834 3.79915Z" fill="#2e7d32"/>
</svg>
