<svg xmlns="http://www.w3.org/2000/svg" xmlns:xlink="http://www.w3.org/1999/xlink" xmlns:inkscape="http://www.inkscape.org/namespaces/inkscape" version="1.1" width="316" height="71" viewBox="0 0 316 71">
<defs>
<path id="font_1_1" d="M.19198609 .2502594C.19198609 .2792511 .16799927 .30325318 .13899231 .30325318 .10998535 .30325318 .085998538 .2792511 .085998538 .2502594 .085998538 .22125244 .10998535 .19726563 .13899231 .19726563 .16799927 .19726563 .19198609 .22125244 .19198609 .2502594Z"/>
<path id="font_2_27" d="M.71699526 0V.0309906H.69898989C.6389923 .0309906 .625 .037979127 .6139984 .07095337L.397995 .6958008C.3929901 .7088165 .3909912 .7158203 .375 .7158203 .35899354 .7158203 .35598756 .70980837 .35099793 .6958008L.14399719 .09791565C.12599182 .04698181 .085998538 .03199768 .03199768 .0309906V0L.13398743 .0029907227 .24899292 0V.0309906C.19898987 .0309906 .17399597 .05596924 .17399597 .0819397 .17399597 .08493042 .1749878 .09492493 .17599488 .09692383L.22200012 .2277832H.46899415L.5219879 .07495117C.522995 .07095337 .5249939 .064956668 .5249939 .060958864 .5249939 .0309906 .46899415 .0309906 .44198609 .0309906V0C.47799684 .0029907227 .5479889 .0029907227 .58599856 .0029907227L.71699526 0M.45799256 .25878907H.23298645L.34498597 .58380129 .45799256 .25878907Z"/>
<path id="font_2_77" d="M.5349884 0V.0309906C.48298646 .0309906 .45799256 .0309906 .45700074 .061019899V.25221253C.45700074 .3383026 .45700074 .36932374 .42599488 .405365 .4119873 .42237855 .3789978 .4423828 .32099916 .4423828 .24798584 .4423828 .20098877 .39935304 .17298889 .33729554V.4423828L.03199768 .43066407V.3996582C.101989749 .3996582 .10998535 .39266969 .10998535 .34370423V.07595825C.10998535 .0309906 .09899902 .0309906 .03199768 .0309906V0L.14498902 .0029907227 .25698854 0V.0309906C.18998719 .0309906 .1789856 .0309906 .1789856 .07595825V.25978089C.1789856 .36431886 .25 .42037965 .31399537 .42037965 .3769989 .42037965 .3880005 .36631776 .3880005 .30926515V.076034549C.3880005 .0309906 .3769989 .0309906 .30999757 .0309906V0L.4229889 .0029907227 .5349884 0Z"/>
<path id="font_2_50" d="M.4149933 .11933899C.4149933 .12934876 .40699769 .13134766 .4019928 .13134766 .3929901 .13134766 .3909912 .12535095 .3889923 .11734009 .35398866 .014251709 .2639923 .014251709 .2539978 .014251709 .20399475 .014251709 .1639862 .044281007 .14099121 .08131409 .11099243 .12934876 .11099243 .19540406 .11099243 .23144531H.3899994C.4119873 .23144531 .4149933 .23144531 .4149933 .2524414 .4149933 .35131837 .36099244 .4482422 .23599243 .4482422 .11999512 .4482422 .027999878 .34532167 .027999878 .22042847 .027999878 .08631897 .1329956-.0107421879 .24798584-.0107421879 .36999513-.0107421879 .4149933 .10032654 .4149933 .11933899M.34899903 .2524414H.11199951C.117996219 .40126039 .20199585 .426239 .23599243 .426239 .33898927 .426239 .34899903 .2913971 .34899903 .2524414Z"/>
<path id="font_2_112" d="M.5079956 .3996582V.43066407C.4850006 .4286499 .45599366 .42765809 .43299867 .42765809L.34599305 .43066407V.3996582C.3829956 .39865113 .3939972 .37568666 .3939972 .35671998 .3939972 .34773255 .3919983 .34373475 .3880005 .3327484L.28599549 .078125 .17399597 .35671998C.16799927 .3697052 .16799927 .37368775 .16799927 .37368775 .16799927 .3996582 .20698548 .3996582 .22499085 .3996582V.43066407L.115997318 .42765809C.08898926 .42765809 .04899597 .4286499 .018997193 .43066407V.3996582C.08198547 .3996582 .085998538 .3936615 .09899902 .36271668L.24299622 .008224487C.24899292-.0057525637 .25099183-.0107421879 .2639923-.0107421879 .2769928-.0107421879 .2809906-.0017700195 .2849884 .008224487L.41600038 .3327484C.4249878 .3557129 .44198609 .39865113 .5079956 .3996582Z"/>
<path id="font_2_109" d="M.5349884 0V.0309906C.46499635 .0309906 .45700074 .037994386 .45700074 .08705139V.4423828L.30999757 .43066407V.3996582C.37998963 .3996582 .3880005 .39266969 .3880005 .34373475V.16601563C.3880005 .07910156 .33999635 .011245728 .2669983 .011245728 .18299866 .011245728 .1789856 .058135988 .1789856 .11009216V.4423828L.03199768 .43066407V.3996582C.10998535 .3996582 .10998535 .39666749 .10998535 .3078003V.15802002C.10998535 .080093387 .10998535-.0107421879 .2619934-.0107421879 .31799317-.0107421879 .3619995 .017242432 .3909912 .07910156V-.0107421879L.5349884 0Z"/>
<path id="font_2_75" d="M.8129883 0V.0309906C.7609863 .0309906 .73599246 .0309906 .7350006 .061019899V.25221253C.7350006 .3383026 .7350006 .36932374 .70399478 .405365 .6899872 .42237855 .6569977 .4423828 .598999 .4423828 .5149994 .4423828 .47099305 .38233949 .45399476 .34429933 .43998719 .43138124 .3659973 .4423828 .32099916 .4423828 .24798584 .4423828 .20098877 .39935304 .17298889 .33729554V.4423828L.03199768 .43066407V.3996582C.101989749 .3996582 .10998535 .39266969 .10998535 .34370423V.07595825C.10998535 .0309906 .09899902 .0309906 .03199768 .0309906V0L.14498902 .0029907227 .25698854 0V.0309906C.18998719 .0309906 .1789856 .0309906 .1789856 .07595825V.25978089C.1789856 .36431886 .25 .42037965 .31399537 .42037965 .3769989 .42037965 .3880005 .36631776 .3880005 .30926515V.076034549C.3880005 .0309906 .3769989 .0309906 .30999757 .0309906V0L.4229889 .0029907227 .5349884 0V.0309906C.46798707 .0309906 .45700074 .0309906 .45700074 .076034549V.2602234C.45700074 .36431886 .5279999 .42037965 .59199526 .42037965 .6549988 .42037965 .66600039 .36631776 .66600039 .30926515V.076034549C.66600039 .0309906 .6549988 .0309906 .58799746 .0309906V0L.70098879 .0029907227 .8129883 0Z"/>
<path id="font_2_35" d="M.5209961 .2163086C.5209961 .34335328 .4229889 .4423828 .30899049 .4423828 .23098755 .4423828 .18798828 .39537049 .17199707 .3773651V.69433596L.027999878 .68333438V.6523285C.09799194 .6523285 .10598755 .6453247 .10598755 .596344V.00024414063H.1309967L.16699219 .06227112C.18199158 .039260866 .22399903-.0107421879 .2979889-.0107421879 .4169922-.0107421879 .5209961 .08728027 .5209961 .2163086M.43798829 .21731568C.43798829 .18029785 .43598939 .120285037 .40699769 .07527161 .38598634 .044265748 .34799195 .011245728 .2939911 .011245728 .24899292 .011260986 .21299744 .03526306 .18899536 .072265628 .1749878 .09326172 .1749878 .09625244 .1749878 .11425781V.32034303C.1749878 .3393402 .1749878 .3403473 .18598938 .35635377 .22499085 .41236878 .27999879 .42037965 .3039856 .42037965 .34899903 .42037965 .3849945 .3943634 .40899659 .35635377 .43499757 .31533814 .43798829 .25831605 .43798829 .21730042V.21731568Z"/>
<path id="font_2_96" d="M.3639984 .38137818C.3639984 .41337586 .33299256 .4423828 .2899933 .4423828 .21699524 .4423828 .18099976 .37538148 .16699219 .3323822V.4423828L.027999878 .43066407V.3996582C.09799194 .3996582 .10598755 .39266969 .10598755 .34370423V.07595825C.10598755 .0309906 .09498596 .0309906 .027999878 .0309906V0L.14199829 .0029907227C.18199158 .0029907227 .22898865 .0029907227 .2689972 0V.0309906H.24798584C.17399597 .0309906 .17199707 .04197693 .17199707 .07795715V.23181153C.17199707 .33137513 .21398926 .42037965 .2899933 .42037965 .29699708 .42037965 .29899598 .42037965 .30099488 .41937257 .2979889 .41838075 .27799989 .40637208 .27799989 .3803711 .27799989 .35237123 .29899598 .33737184 .32099916 .33737184 .33898927 .33737184 .3639984 .3493805 .3639984 .38137818Z"/>
<path id="font_2_81" d="M.47099305 .21424866C.47099305 .34223939 .37098695 .4482422 .25 .4482422 .125 .4482422 .027999878 .3392334 .027999878 .21424866 .027999878 .085250858 .13198853-.0107421879 .24899292-.0107421879 .36999513-.0107421879 .47099305 .087249759 .47099305 .21424866M.3880005 .22224427C.3880005 .18624878 .3880005 .13224793 .3659973 .08824158 .34399415 .04324341 .2999878 .014251709 .25 .014251709 .20698548 .014251709 .16299439 .035247804 .13598633 .08125305 .11099243 .12524414 .11099243 .18624878 .11099243 .22224427 .11099243 .26124574 .11099243 .31523133 .1349945 .35923768 .1619873 .40522767 .20899964 .426239 .24899292 .426239 .29299928 .426239 .33599855 .40423585 .3619995 .36123658 .3880005 .3182373 .3880005 .26023866 .3880005 .22224427Z"/>
<path id="font_2_105" d="M.33198548 .12385559V.18066406H.30699159V.12585449C.30699159 .052108766 .2769928 .014251709 .23999024 .014251709 .17298889 .014251709 .17298889 .10491943 .17298889 .12187195V.3996582H.31599427V.43066407H.17298889V.6142578H.147995C.14698792 .5324249 .116989139 .42565919 .018997193 .42166139V.3996582H.10398865V.12408447C.10398865 .0012512207 .19699097-.0107421879 .23298645-.0107421879 .3039856-.0107421879 .33198548 .060180665 .33198548 .12408447V.12385559Z"/>
<path id="font_2_63" d="M.5349884 0V.0309906C.48298646 .0309906 .45799256 .0309906 .45700074 .061019899V.25221253C.45700074 .3383026 .45700074 .36932374 .42599488 .405365 .4119873 .42237855 .3789978 .4423828 .32099916 .4423828 .23699951 .4423828 .19299317 .38233949 .1769867 .34629823H.17599488V.69433596L.03199768 .6826172V.6516113C.101989749 .6516113 .10998535 .64463809 .10998535 .59580996V.076034549C.10998535 .0309906 .09899902 .0309906 .03199768 .0309906V0L.14498902 .0029907227 .25698854 0V.0309906C.18998719 .0309906 .1789856 .0309906 .1789856 .076034549V.2602234C.1789856 .36431886 .25 .42037965 .31399537 .42037965 .3769989 .42037965 .3880005 .36631776 .3880005 .30926515V.076034549C.3880005 .0309906 .3769989 .0309906 .30999757 .0309906V0L.4229889 .0029907227 .5349884 0Z"/>
<path id="font_2_54" d="M.6100006 .45477296 .58200076 .6796875H.032989503V.64868167H.056991579C.13398743 .64868167 .13598633 .63768008 .13598633 .6016998V.07797241C.13598633 .041992189 .13398743 .0309906 .056991579 .0309906H.032989503V0C.067993167 .0029907227 .1459961 .0029907227 .18499756 .0029907227 .22599793 .0029907227 .31698609 .0029907227 .35299684 0V.0309906H.31999208C.22499085 .031188965 .22499085 .044189454 .22499085 .079193118V.3251953H.31098939C.40699769 .3251953 .4169922 .29318238 .4169922 .20819092H.44198609V.4731903H.4169922C.4169922 .38919068 .40699769 .3561859 .31098939 .3561859H.22499085V.6091919C.22499085 .64167788 .22698975 .64868167 .27398683 .64868167H.3939972C.5439911 .64868167 .56900027 .5926819 .58499148 .4546814L.6100006 .45477296Z"/>
<path id="font_2_66" d="M.24699402 0V.0309906C.18099976 .0309906 .1769867 .035995485 .1769867 .075042728V.4423828L.036987306 .43066407V.3996582C.101989749 .3996582 .11099243 .3936615 .11099243 .3447113V.07595825C.11099243 .0309906 .099990848 .0309906 .032989503 .0309906V0L.14299011 .0029907227C.17799378 .0029907227 .21299744 .0009918213 .24699402 0M.19198609 .603775C.19198609 .6307678 .16899109 .6567688 .13899231 .6567688 .10499573 .6567688 .084991458 .6287689 .084991458 .603775 .084991458 .57676699 .10798645 .55078127 .13798523 .55078127 .17199707 .55078127 .19198609 .5787811 .19198609 .603775Z"/>
<path id="font_2_47" d="M.5269928 0V.0309906C.45700074 .0309906 .44898988 .038009645 .44898988 .0871582V.69433596L.30499269 .6826172V.6516113C.375 .6516113 .3829956 .64463809 .3829956 .59580996V.38035584C.35398866 .41636659 .31098939 .4423828 .25698854 .4423828 .13899231 .4423828 .033996583 .3443451 .033996583 .21531677 .033996583 .088272098 .13198853-.0107421879 .24598694-.0107421879 .30999757-.0107421879 .35499574 .023254395 .37998963 .055267335V-.0107421879L.5269928 0M.37998963 .117996219C.37998963 .099990848 .37998963 .09799194 .36898805 .08099365 .33898927 .033218385 .2939911 .011245728 .25099183 .011245728 .20599365 .011245728 .16999817 .037216188 .1459961 .075164798 .11999512 .1161499 .116989139 .17320252 .116989139 .21421814 .116989139 .25125123 .11898804 .31129457 .147995 .35632325 .16899109 .38734437 .20698548 .42037965 .26098634 .42037965 .29599 .42037965 .33799745 .405365 .36898805 .3603363 .37998963 .34332276 .37998963 .34132386 .37998963 .32330323V.117996219Z"/>
<path id="font_2_28" d="M.48298646 .08912659V.14511109H.45799256V.08912659C.45799256 .03112793 .43299867 .025131226 .42199708 .025131226 .3889923 .025131226 .3849945 .070129398 .3849945 .07511902V.27508546C.3849945 .31707765 .3849945 .3560791 .34899903 .39312745 .30999757 .43223573 .2599945 .4482422 .21199036 .4482422 .12998963 .4482422 .06098938 .40115357 .06098938 .335083 .06098938 .30508424 .08099365 .28808595 .10699463 .28808595 .1349945 .28808595 .15299988 .30807496 .15299988 .33407594 .15299988 .3460846 .147995 .37908937 .101989749 .38008119 .1289978 .41519166 .17799378 .426239 .20999146 .426239 .25898744 .426239 .31599427 .38710023 .31599427 .29808045V.26107789C.2649994 .25808717 .19499207 .25508119 .13198853 .22509766 .056991579 .19110108 .03199768 .13911438 .03199768 .09512329 .03199768 .014251709 .1289978-.0107421879 .19198609-.0107421879 .2579956-.0107421879 .3039856 .029251099 .32299806 .07624817 .32699586 .036132814 .35398866-.005859375 .40098573-.005859375 .42199708-.005859375 .48298646 .008132935 .48298646 .08912659M.31599427 .14013672C.31599427 .04525757 .24398804 .011245728 .19898987 .011245728 .1499939 .011245728 .10899353 .04624939 .10899353 .09625244 .10899353 .15124512 .15098572 .23425293 .31599427 .24024964V.14013672Z"/>
<path id="font_2_72" d="M.25498963 0V.0309906C.18798828 .0309906 .1769867 .0309906 .1769867 .07601929V.69433596L.032989503 .6826172V.6516113C.102996829 .6516113 .11099243 .64460757 .11099243 .5956421V.07595825C.11099243 .0309906 .099990848 .0309906 .032989503 .0309906V0L.14399719 .0029907227 .25498963 0Z"/>
</defs>
<path transform="matrix(1.00006,0,0,-1.00005,2.0959855,48.11875)" d="M0 0V28.3468H127.56062V0ZM127.56062 28.3468" fill="#a5d6a7"/>
<path transform="matrix(1.00006,0,0,-1.00005,2.0959855,48.11875)" d="M170.08086 0V28.3468H311.8149V0ZM311.8149 28.3468" fill="#90caf9"/>
<path transform="matrix(1.00006,0,0,-1.00005,2.0959855,48.11875)" stroke-width=".3985" stroke-linecap="butt" stroke-miterlimit="10" stroke-linejoin="miter" fill="none" stroke="#000000" d="M0 0H127.56062"/>
<path transform="matrix(1.00006,0,0,-1.00005,2.0959855,48.11875)" stroke-width=".3985" stroke-linecap="butt" stroke-miterlimit="10" stroke-linejoin="miter" fill="none" stroke="#000000" d="M0 14.17339H127.56062"/>
<path transform="matrix(1.00006,0,0,-1.00005,2.0959855,48.11875)" stroke-width=".3985" stroke-linecap="butt" stroke-miterlimit="10" stroke-linejoin="miter" fill="none" stroke="#000000" d="M0 28.3468H127.56062"/>
<path transform="matrix(1.00006,0,0,-1.00005,2.0959855,48.11875)" stroke-width=".3985" stroke-linecap="butt" stroke-miterlimit="10" stroke-linejoin="miter" fill="none" stroke="#000000" d="M0 0V28.3468"/>
<path transform="matrix(1.00006,0,0,-1.00005,2.0959855,48.11875)" stroke-width=".3985" stroke-linecap="butt" stroke-miterlimit="10" stroke-linejoin="miter" fill="none" stroke="#000000" d="M14.17339 0V28.3468"/>
<path transform="matrix(1.00006,0,0,-1.00005,2.0959855,48.11875)" stroke-width=".3985" stroke-linecap="butt" stroke-miterlimit="10" stroke-linejoin="miter" fill="none" stroke="#000000" d="M28.3468 0V28.3468"/>
<path transform="matrix(1.00006,0,0,-1.00005,2.0959855,48.11875)" stroke-width=".3985" stroke-linecap="butt" stroke-miterlimit="10" stroke-linejoin="miter" fill="none" stroke="#000000" d="M113.38724 0V28.3468"/>
<path transform="matrix(1.00006,0,0,-1.00005,2.0959855,48.11875)" stroke-width=".3985" stroke-linecap="butt" stroke-miterlimit="10" stroke-linejoin="miter" fill="none" stroke="#000000" d="M127.56062 0V28.3468"/>
<path transform="matrix(1.00006,0,0,-1.00005,2.0959855,48.11875)" stroke-width=".3985" stroke-linecap="butt" stroke-miterlimit="10" stroke-linejoin="miter" fill="none" stroke="#000000" d="M70.867 0"/>
<use data-text="&#x00b7;" xlink:href="#font_1_1" transform="matrix(9.963197,0,0,-9.963098,66.32484,44.598577)"/>
<use data-text="&#x00b7;" xlink:href="#font_1_1" transform="matrix(9.963197,0,0,-9.963098,70.73854,44.598577)"/>
<use data-text="&#x00b7;" xlink:href="#font_1_1" transform="matrix(9.963197,0,0,-9.963098,75.16221,44.598577)"/>
<path transform="matrix(1.00006,0,0,-1.00005,2.0959855,48.11875)" stroke-width=".3985" stroke-linecap="butt" stroke-miterlimit="10" stroke-linejoin="miter" fill="none" stroke="#000000" d="M70.867 28.3468"/>
<use data-text="&#x00b7;" xlink:href="#font_1_1" transform="matrix(9.963197,0,0,-9.963098,66.32484,27.718733)"/>
<use data-text="&#x00b7;" xlink:href="#font_1_1" transform="matrix(9.963197,0,0,-9.963098,70.73854,27.718733)"/>
<use data-text="&#x00b7;" xlink:href="#font_1_1" transform="matrix(9.963197,0,0,-9.963098,75.16221,27.718733)"/>
<path transform="matrix(1.00006,0,0,-1.00005,2.0959855,48.11875)" stroke-width=".3985" stroke-linecap="butt" stroke-miterlimit="10" stroke-linejoin="miter" fill="none" stroke="#000000" d="M70.867 35.43349"/>
<use data-text="A" xlink:href="#font_2_27" transform="matrix(9.963197,0,0,-9.963098,36.975076,9.0538029)"/>
<use data-text="n" xlink:href="#font_2_77" transform="matrix(9.963197,0,0,-9.963098,44.44747,9.0538029)"/>
<use data-text="e" xlink:href="#font_2_50" transform="matrix(9.963197,0,0,-9.963098,53.294794,9.0538029)"/>
<use data-text="v" xlink:href="#font_2_112" transform="matrix(9.963197,0,0,-9.963098,57.718454,9.0538029)"/>
<use data-text="e" xlink:href="#font_2_50" transform="matrix(9.963197,0,0,-9.963098,62.710016,9.0538029)"/>
<use data-text="n" xlink:href="#font_2_77" transform="matrix(9.963197,0,0,-9.963098,67.133678,9.0538029)"/>
<use data-text="n" xlink:href="#font_2_77" transform="matrix(9.963197,0,0,-9.963098,75.981,9.0538029)"/>
<use data-text="u" xlink:href="#font_2_109" transform="matrix(9.963197,0,0,-9.963098,81.25153,9.0538029)"/>
<use data-text="m" xlink:href="#font_2_75" transform="matrix(9.963197,0,0,-9.963098,86.79107,9.0538029)"/>
<use data-text="b" xlink:href="#font_2_35" transform="matrix(9.963197,0,0,-9.963098,94.811458,9.0538029)"/>
<use data-text="e" xlink:href="#font_2_50" transform="matrix(9.963197,0,0,-9.963098,100.62,9.0538029)"/>
<use data-text="r" xlink:href="#font_2_96" transform="matrix(9.963197,0,0,-9.963098,105.04366,9.0538029)"/>
<path transform="matrix(1.00006,0,0,-1.00005,2.0959855,48.11875)" stroke-width=".3985" stroke-linecap="butt" stroke-miterlimit="10" stroke-linejoin="miter" fill="none" stroke="#000000" d="M170.08086 0H311.8149"/>
<path transform="matrix(1.00006,0,0,-1.00005,2.0959855,48.11875)" stroke-width=".3985" stroke-linecap="butt" stroke-miterlimit="10" stroke-linejoin="miter" fill="none" stroke="#000000" d="M170.08086 14.17339H311.8149"/>
<path transform="matrix(1.00006,0,0,-1.00005,2.0959855,48.11875)" stroke-width=".3985" stroke-linecap="butt" stroke-miterlimit="10" stroke-linejoin="miter" fill="none" stroke="#000000" d="M170.08086 28.3468H311.8149"/>
<path transform="matrix(1.00006,0,0,-1.00005,2.0959855,48.11875)" stroke-width=".3985" stroke-linecap="butt" stroke-miterlimit="10" stroke-linejoin="miter" fill="none" stroke="#000000" d="M170.08086 0V28.3468"/>
<path transform="matrix(1.00006,0,0,-1.00005,2.0959855,48.11875)" stroke-width=".3985" stroke-linecap="butt" stroke-miterlimit="10" stroke-linejoin="miter" fill="none" stroke="#000000" d="M184.25424 0V28.3468"/>
<path transform="matrix(1.00006,0,0,-1.00005,2.0959855,48.11875)" stroke-width=".3985" stroke-linecap="butt" stroke-miterlimit="10" stroke-linejoin="miter" fill="none" stroke="#000000" d="M198.42766 0V28.3468"/>
<path transform="matrix(1.00006,0,0,-1.00005,2.0959855,48.11875)" stroke-width=".3985" stroke-linecap="butt" stroke-miterlimit="10" stroke-linejoin="miter" fill="none" stroke="#000000" d="M297.6415 0V28.3468"/>
<path transform="matrix(1.00006,0,0,-1.00005,2.0959855,48.11875)" stroke-width=".3985" stroke-linecap="butt" stroke-miterlimit="10" stroke-linejoin="miter" fill="none" stroke="#000000" d="M311.8149 0V28.3468"/>
<path transform="matrix(1.00006,0,0,-1.00005,2.0959855,48.11875)" stroke-width=".3985" stroke-linecap="butt" stroke-miterlimit="10" stroke-linejoin="miter" fill="none" stroke="#000000" d="M233.86116 0"/>
<use data-text="&#x00b7;" xlink:href="#font_1_1" transform="matrix(9.963197,0,0,-9.963098,229.32862,44.598577)"/>
<use data-text="&#x00b7;" xlink:href="#font_1_1" transform="matrix(9.963197,0,0,-9.963098,233.74231,44.598577)"/>
<use data-text="&#x00b7;" xlink:href="#font_1_1" transform="matrix(9.963197,0,0,-9.963098,238.16599,44.598577)"/>
<path transform="matrix(1.00006,0,0,-1.00005,2.0959855,48.11875)" stroke-width=".3985" stroke-linecap="butt" stroke-miterlimit="10" stroke-linejoin="miter" fill="none" stroke="#000000" d="M233.86116 28.3468"/>
<use data-text="&#x00b7;" xlink:href="#font_1_1" transform="matrix(9.963197,0,0,-9.963098,229.32862,27.718733)"/>
<use data-text="&#x00b7;" xlink:href="#font_1_1" transform="matrix(9.963197,0,0,-9.963098,233.74231,27.718733)"/>
<use data-text="&#x00b7;" xlink:href="#font_1_1" transform="matrix(9.963197,0,0,-9.963098,238.16599,27.718733)"/>
<path transform="matrix(1.00006,0,0,-1.00005,2.0959855,48.11875)" stroke-width=".3985" stroke-linecap="butt" stroke-miterlimit="10" stroke-linejoin="miter" fill="none" stroke="#000000" d="M233.86116 35.43349"/>
<use data-text="A" xlink:href="#font_2_27" transform="matrix(9.963197,0,0,-9.963098,188.61518,9.0538029)"/>
<use data-text="n" xlink:href="#font_2_77" transform="matrix(9.963197,0,0,-9.963098,196.08756,9.0538029)"/>
<use data-text="o" xlink:href="#font_2_81" transform="matrix(9.963197,0,0,-9.963098,201.6271,9.0538029)"/>
<use data-text="t" xlink:href="#font_2_105" transform="matrix(9.963197,0,0,-9.963098,206.6087,9.0538029)"/>
<use data-text="h" xlink:href="#font_2_63" transform="matrix(9.963197,0,0,-9.963098,210.48438,9.0538029)"/>
<use data-text="e" xlink:href="#font_2_50" transform="matrix(9.963197,0,0,-9.963098,216.02393,9.0538029)"/>
<use data-text="r" xlink:href="#font_2_96" transform="matrix(9.963197,0,0,-9.963098,220.44757,9.0538029)"/>
<use data-text="e" xlink:href="#font_2_50" transform="matrix(9.963197,0,0,-9.963098,227.66095,9.0538029)"/>
<use data-text="v" xlink:href="#font_2_112" transform="matrix(9.963197,0,0,-9.963098,232.0846,9.0538029)"/>
<use data-text="e" xlink:href="#font_2_50" transform="matrix(9.963197,0,0,-9.963098,237.07614,9.0538029)"/>
<use data-text="n" xlink:href="#font_2_77" transform="matrix(9.963197,0,0,-9.963098,241.49982,9.0538029)"/>
<use data-text="n" xlink:href="#font_2_77" transform="matrix(9.963197,0,0,-9.963098,250.34714,9.0538029)"/>
<use data-text="u" xlink:href="#font_2_109" transform="matrix(9.963197,0,0,-9.963098,255.61765,9.0538029)"/>
<use data-text="m" xlink:href="#font_2_75" transform="matrix(9.963197,0,0,-9.963098,261.1572,9.0538029)"/>
<use data-text="b" xlink:href="#font_2_35" transform="matrix(9.963197,0,0,-9.963098,269.17756,9.0538029)"/>
<use data-text="e" xlink:href="#font_2_50" transform="matrix(9.963197,0,0,-9.963098,274.9861,9.0538029)"/>
<use data-text="r" xlink:href="#font_2_96" transform="matrix(9.963197,0,0,-9.963098,279.40977,9.0538029)"/>
<path transform="matrix(1.00006,0,0,-1.00005,2.0959855,48.11875)" stroke-width=".3985" stroke-linecap="butt" stroke-miterlimit="10" stroke-linejoin="miter" fill="none" stroke="#000000" d="M311.8149-5.66927C311.06773-7.1637 309.3242-8.15996 306.8335-8.15996H160.88884C158.39815-8.15996 156.65464-9.15622 155.90746-10.65065 155.16028-9.15622 153.41677-8.15996 150.92607-8.15996H4.98138C2.49069-8.15996 .74718-7.1637 0-5.66927"/>
<use data-text="F" xlink:href="#font_2_54" transform="matrix(9.963197,0,0,-9.963098,127.35549,69.2048)"/>
<use data-text="i" xlink:href="#font_2_66" transform="matrix(9.963197,0,0,-9.963098,133.86145,69.2048)"/>
<use data-text="n" xlink:href="#font_2_77" transform="matrix(9.963197,0,0,-9.963098,136.63123,69.2048)"/>
<use data-text="d" xlink:href="#font_2_47" transform="matrix(9.963197,0,0,-9.963098,142.17078,69.2048)"/>
<use data-text="t" xlink:href="#font_2_105" transform="matrix(9.963197,0,0,-9.963098,151.0181,69.2048)"/>
<use data-text="h" xlink:href="#font_2_63" transform="matrix(9.963197,0,0,-9.963098,154.89377,69.2048)"/>
<use data-text="e" xlink:href="#font_2_50" transform="matrix(9.963197,0,0,-9.963098,160.43332,69.2048)"/>
<use data-text="t" xlink:href="#font_2_105" transform="matrix(9.963197,0,0,-9.963098,168.17472,69.2048)"/>
<use data-text="o" xlink:href="#font_2_81" transform="matrix(9.963197,0,0,-9.963098,172.05039,69.2048)"/>
<use data-text="t" xlink:href="#font_2_105" transform="matrix(9.963197,0,0,-9.963098,177.03199,69.2048)"/>
<use data-text="a" xlink:href="#font_2_28" transform="matrix(9.963197,0,0,-9.963098,180.90769,69.2048)"/>
<use data-text="l" xlink:href="#font_2_72" transform="matrix(9.963197,0,0,-9.963098,185.88928,69.2048)"/>
</svg>
